<svg xmlns="http://www.w3.org/2000/svg" viewBox="0 0 311.26 322.32"><g id="Layer_2" data-name="Layer 2"><g id="Layer_1-2" data-name="Layer 1"><path d="M139.7,9.08c-.56.27-.94.16-1.16-.32l-1.36-2.6c-.29-.67-.16-1.15.4-1.44L144.82.8c.29-.13.56-.24.78-.32a3.45,3.45,0,0,1,1.06-.12H149a1.43,1.43,0,0,1,1.06.28,1.52,1.52,0,0,1,.26,1l.08,28a1.24,1.24,0,0,1-.24.88,1.3,1.3,0,0,1-.92.24h-2.72a1.32,1.32,0,0,1-.92-.24,1.24,1.24,0,0,1-.24-.88L145.26,6.2Z"/><path d="M155.86,27.16a2,2,0,0,1,.14-.62,1.91,1.91,0,0,1,.42-.66c.56-.51,1.26-1.12,2.08-1.84s1.7-1.51,2.62-2.38,1.84-1.79,2.76-2.76A33.79,33.79,0,0,0,166.36,16a17.09,17.09,0,0,0,1.8-2.92,6.32,6.32,0,0,0,.7-2.74,5.12,5.12,0,0,0-1.54-4.12A6.41,6.41,0,0,0,163,4.88a11.54,11.54,0,0,0-2.12.2,16,16,0,0,0-2,.5,14.71,14.71,0,0,0-1.68.66c-.51.24-.93.45-1.28.64a1.45,1.45,0,0,1-.9.3c-.2,0-.36-.29-.5-.74l-.72-2.2a1.88,1.88,0,0,1-.08-1,1.46,1.46,0,0,1,.68-.64c.56-.32,1.15-.63,1.76-.94a14.41,14.41,0,0,1,2-.82A16.81,16.81,0,0,1,160.7.22a18.78,18.78,0,0,1,3-.22,14,14,0,0,1,3.7.5,9.15,9.15,0,0,1,3.26,1.62,8,8,0,0,1,2.32,3,10.5,10.5,0,0,1,.88,4.54,11.3,11.3,0,0,1-1,4.58,21.48,21.48,0,0,1-2.56,4.3,35.85,35.85,0,0,1-3.56,4q-2,1.93-3.94,3.66h9.2a1.44,1.44,0,0,1,.88.2,1.08,1.08,0,0,1,.24.84v2.52a1.08,1.08,0,0,1-.24.84,1.44,1.44,0,0,1-.88.2H157a1.46,1.46,0,0,1-.88-.2,1.08,1.08,0,0,1-.24-.84Z"/><path d="M70.05,28.58c-.56.27-1,.16-1.16-.32l-1.36-2.6c-.29-.67-.16-1.15.4-1.44l7.24-3.92c.29-.13.55-.24.78-.32A3.45,3.45,0,0,1,77,19.86h2.36a1.45,1.45,0,0,1,1.06.28,1.57,1.57,0,0,1,.26,1l.08,28a1.24,1.24,0,0,1-.24.88,1.32,1.32,0,0,1-.92.24H76.89a1.32,1.32,0,0,1-.92-.24,1.24,1.24,0,0,1-.24-.88L75.61,25.7Z"/><path d="M86.41,28.58c-.56.27-1,.16-1.16-.32l-1.36-2.6c-.29-.67-.16-1.15.4-1.44l7.24-3.92c.29-.13.55-.24.78-.32a3.45,3.45,0,0,1,1.06-.12h2.36a1.45,1.45,0,0,1,1.06.28,1.57,1.57,0,0,1,.26,1l.08,28a1.24,1.24,0,0,1-.24.88,1.32,1.32,0,0,1-.92.24H93.25a1.32,1.32,0,0,1-.92-.24,1.24,1.24,0,0,1-.24-.88L92,25.7Z"/><path d="M11.76,81.85c-.56.27-.95.16-1.16-.32l-1.36-2.6c-.29-.67-.16-1.15.4-1.44l7.24-3.92c.29-.13.55-.24.78-.32a3.45,3.45,0,0,1,1.06-.12h2.36a1.45,1.45,0,0,1,1.06.28,1.57,1.57,0,0,1,.26,1l.08,28a1.24,1.24,0,0,1-.24.88,1.32,1.32,0,0,1-.92.24H18.6a1.32,1.32,0,0,1-.92-.24,1.24,1.24,0,0,1-.24-.88L17.32,79Z"/><path d="M27.12,88.29A25.48,25.48,0,0,1,27.86,82,15,15,0,0,1,30,77.05a10,10,0,0,1,3.48-3.16,9.64,9.64,0,0,1,4.66-1.12,9.75,9.75,0,0,1,4.7,1.12,10.17,10.17,0,0,1,3.48,3.16A15.17,15.17,0,0,1,48.5,82a27.61,27.61,0,0,1,0,12.7,15.19,15.19,0,0,1-2.16,4.92,10.17,10.17,0,0,1-3.48,3.16,9.63,9.63,0,0,1-4.7,1.12,9.53,9.53,0,0,1-4.66-1.12A10,10,0,0,1,30,99.57a15,15,0,0,1-2.16-4.92A25.7,25.7,0,0,1,27.12,88.29Zm4.92,0c0,3.55.52,6.25,1.56,8.12a5.15,5.15,0,0,0,9.16,0c1-1.87,1.56-4.57,1.56-8.12S43.8,82,42.76,80.17a5.15,5.15,0,0,0-9.16,0C32.56,82,32,84.74,32,88.29Z"/><path d="M14,165.14c-.43.19-.8.34-1.12.46a8.84,8.84,0,0,1-1,.3,5.44,5.44,0,0,1-1,.16c-.36,0-.79,0-1.3,0a9.81,9.81,0,0,1-4-.78,8.86,8.86,0,0,1-3-2.12A9.08,9.08,0,0,1,.66,160a11.59,11.59,0,0,1-.66-4,11.7,11.7,0,0,1,.78-4.38A9.5,9.5,0,0,1,3,148.36a9.79,9.79,0,0,1,3.42-2.12,12.76,12.76,0,0,1,4.44-.74,10,10,0,0,1,3.84.72,8.32,8.32,0,0,1,3.06,2.18,10.44,10.44,0,0,1,2,3.66,16.21,16.21,0,0,1,.74,5.12,21.12,21.12,0,0,1-.7,5.56,21.62,21.62,0,0,1-2,5,25.34,25.34,0,0,1-3.2,4.48,38.77,38.77,0,0,1-4.2,4.08,1.7,1.7,0,0,1-1,.52,1.3,1.3,0,0,1-.9-.52L7.12,174.9c-.43-.42-.62-.76-.58-1a1.9,1.9,0,0,1,.7-.94,36.74,36.74,0,0,0,4.38-4.3A17.16,17.16,0,0,0,14,165.14Zm-3.72-3.4a5.73,5.73,0,0,0,2.14-.4,5.3,5.3,0,0,0,1.8-1.14,5.39,5.39,0,0,0,1.24-1.82,6.1,6.1,0,0,0,.46-2.44,6,6,0,0,0-.46-2.42,5.81,5.81,0,0,0-1.24-1.82,5.51,5.51,0,0,0-1.8-1.16,5.92,5.92,0,0,0-4.28,0,5.51,5.51,0,0,0-1.8,1.16,5.81,5.81,0,0,0-1.24,1.82,6,6,0,0,0-.46,2.42,6.1,6.1,0,0,0,.46,2.44A5.39,5.39,0,0,0,6.3,160.2a5.3,5.3,0,0,0,1.8,1.14A5.73,5.73,0,0,0,10.24,161.74Z"/><path d="M29.8,249.39a14.42,14.42,0,0,1-4.52-.64A9.19,9.19,0,0,1,22,247a7.33,7.33,0,0,1-2-2.74,8.64,8.64,0,0,1-.68-3.5,7.38,7.38,0,0,1,3.64-6.2,5,5,0,0,1-1.66-1.28A8.14,8.14,0,0,1,20,231.39a9.12,9.12,0,0,1-.76-2.06,7.81,7.81,0,0,1-.26-1.94,8.56,8.56,0,0,1,.78-3.64,8.27,8.27,0,0,1,2.2-2.88,10.53,10.53,0,0,1,3.4-1.88,13.62,13.62,0,0,1,4.42-.68,13.67,13.67,0,0,1,4.42.68,10.64,10.64,0,0,1,3.4,1.88,8.39,8.39,0,0,1,2.2,2.88,8.56,8.56,0,0,1,.78,3.64,8.31,8.31,0,0,1-.26,1.94,10.2,10.2,0,0,1-.76,2.06,8.86,8.86,0,0,1-1.24,1.84,5.26,5.26,0,0,1-1.66,1.28,7.44,7.44,0,0,1,2.8,3,7.66,7.66,0,0,1,.8,3.22,8.81,8.81,0,0,1-.68,3.5,7.61,7.61,0,0,1-2,2.74,9.1,9.1,0,0,1-3.28,1.8A14.51,14.51,0,0,1,29.8,249.39Zm0-17.48a7.58,7.58,0,0,0,2.26-.32,5.68,5.68,0,0,0,1.84-.92,4.27,4.27,0,0,0,1.22-1.48,4.59,4.59,0,0,0,0-3.92,4.64,4.64,0,0,0-1.22-1.5,6,6,0,0,0-1.84-1,7.81,7.81,0,0,0-4.56,0,5.53,5.53,0,0,0-1.82,1,4.58,4.58,0,0,0-1.2,1.5,4.39,4.39,0,0,0,1.2,5.4,5.29,5.29,0,0,0,1.82.92A7.66,7.66,0,0,0,29.8,231.91Zm0,13.32a5.89,5.89,0,0,0,3.94-1.3,4.22,4.22,0,0,0,1.54-3.38,4.1,4.1,0,0,0-1.54-3.38A6.18,6.18,0,0,0,29.8,236a6.22,6.22,0,0,0-4,1.22,4.07,4.07,0,0,0-1.54,3.38,4.19,4.19,0,0,0,1.54,3.38A5.92,5.92,0,0,0,29.8,245.23Z"/><path d="M92.11,275.39a6.56,6.56,0,0,1-.06,1,6.2,6.2,0,0,1-.18.78l-8.48,24.47a1.63,1.63,0,0,1-.66,1,1.29,1.29,0,0,1-1.06-.1l-2.2-.79c-.56-.22-.89-.45-1-.71a2.36,2.36,0,0,1,.18-1.33l7.92-23.09H73.83a1.45,1.45,0,0,1-.9-.21,1.14,1.14,0,0,1-.26-.87V273a1,1,0,0,1,.26-.83,1.45,1.45,0,0,1,.9-.21H91a1.45,1.45,0,0,1,.9.21,1,1,0,0,1,.26.83Z"/><path d="M151.66,304.44a7.88,7.88,0,0,1,2.24-.86,13.15,13.15,0,0,1,2.72-.26,10.53,10.53,0,0,1,3.8.66,8.85,8.85,0,0,1,3,1.86,8.4,8.4,0,0,1,2,2.9,9.69,9.69,0,0,1,.7,3.74,10.63,10.63,0,0,1-.78,4.2,8.53,8.53,0,0,1-2.18,3.1,9.16,9.16,0,0,1-3.3,1.9,12.75,12.75,0,0,1-4.14.64,10,10,0,0,1-4.06-.8,9,9,0,0,1-3.2-2.28,10.62,10.62,0,0,1-2.1-3.6,13.79,13.79,0,0,1-.76-4.72,21.24,21.24,0,0,1,2.48-9.7,32.94,32.94,0,0,1,7.88-9.58,1.87,1.87,0,0,1,1-.58,1.47,1.47,0,0,1,1,.54l1.48,1.64c.72.78.72,1.47,0,2.08s-1.3,1.12-2.06,1.84-1.51,1.49-2.24,2.3a29.32,29.32,0,0,0-2,2.52A15.56,15.56,0,0,0,151.66,304.44ZM161,312.6a5.26,5.26,0,0,0-1.38-3.56,5.08,5.08,0,0,0-1.62-1.16,5.18,5.18,0,0,0-2.16-.44,5.69,5.69,0,0,0-2.16.4,4.58,4.58,0,0,0-2.62,2.74,5.83,5.83,0,0,0-.34,2,5.39,5.39,0,0,0,.34,1.92,4.92,4.92,0,0,0,1,1.64,4.74,4.74,0,0,0,1.62,1.14,5.76,5.76,0,0,0,4.32,0,4.74,4.74,0,0,0,1.62-1.14A5.26,5.26,0,0,0,161,312.6Z"/><path d="M219.73,273a1.07,1.07,0,0,1,.24-.83,1.38,1.38,0,0,1,.88-.21h16a1.45,1.45,0,0,1,.9.21c.18.13.26.41.26.83v2.52a1,1,0,0,1-.26.85,1.54,1.54,0,0,1-.9.19H224.73v8.33q6.81-.81,10.26,1.42t3.46,7.13a9.26,9.26,0,0,1-.72,3.66,8.41,8.41,0,0,1-2.06,3,9.44,9.44,0,0,1-3.24,2,12,12,0,0,1-4.3.73,22.27,22.27,0,0,1-3.82-.27,24.16,24.16,0,0,1-2.94-.69,1.73,1.73,0,0,1-.76-.42,1.31,1.31,0,0,1-.08-.83l.4-2.39a1.22,1.22,0,0,1,.34-.8c.18-.14.49-.14.94,0,.7.18,1.53.36,2.5.54a17.38,17.38,0,0,0,3,.26,9.38,9.38,0,0,0,2.22-.26,6,6,0,0,0,1.88-.81,3.85,3.85,0,0,0,1.3-1.39,4.22,4.22,0,0,0,.48-2.07,4.14,4.14,0,0,0-1.56-3.41,6.46,6.46,0,0,0-4.44-1.15,30.71,30.71,0,0,0-3.06.29c-.89.13-1.89.25-3,.36a1.93,1.93,0,0,1-1.46-.21,2.18,2.18,0,0,1-.34-1.48Z"/><path d="M289.22,244.11V248a1.14,1.14,0,0,1-.26.88,1.38,1.38,0,0,1-.94.24h-2.28a1.32,1.32,0,0,1-.92-.24,1.24,1.24,0,0,1-.24-.88v-3.88H271.7a1.5,1.5,0,0,1-.9-.2,1,1,0,0,1-.26-.84V241a2.48,2.48,0,0,1,.14-.82,4.74,4.74,0,0,1,.5-.9l13.16-19.52a2.79,2.79,0,0,1,.76-.82,2.18,2.18,0,0,1,1.08-.22H288a1.38,1.38,0,0,1,.94.24,1.16,1.16,0,0,1,.26.88v19.92h3.32a1.53,1.53,0,0,1,.9.2,1,1,0,0,1,.26.84v2.32c0,.43-.08.71-.26.84a1.46,1.46,0,0,1-.9.2Zm-12.72-4.4h8.08V227.23Z"/><path d="M299.14,158.94a12.47,12.47,0,0,0,2.72-.28,7.25,7.25,0,0,0,2.24-.84,4.69,4.69,0,0,0,1.54-1.38,3.09,3.09,0,0,0,.58-1.86,3.53,3.53,0,0,0-1.52-3.1,8.49,8.49,0,0,0-4.76-1.06,14.13,14.13,0,0,0-3.72.46,19.72,19.72,0,0,0-2.92,1.06c-.4.22-.69.28-.88.18a1.21,1.21,0,0,1-.48-.7l-.8-2.12a1.87,1.87,0,0,1-.08-1,1.44,1.44,0,0,1,.76-.68,21.46,21.46,0,0,1,3.66-1.46,18.13,18.13,0,0,1,5.1-.62,15.93,15.93,0,0,1,4.42.58,10,10,0,0,1,3.36,1.66,7.39,7.39,0,0,1,2.14,2.64,7.79,7.79,0,0,1,.76,3.48,7,7,0,0,1-.54,2.88,7.89,7.89,0,0,1-1.28,2,7.66,7.66,0,0,1-1.56,1.38c-.54.36-1,.66-1.42.9a6.72,6.72,0,0,1,3.24,2.8,7.83,7.83,0,0,1,1,3.8,8.91,8.91,0,0,1-.94,4.3,7.78,7.78,0,0,1-2.46,2.8,9.76,9.76,0,0,1-3.46,1.52,16.63,16.63,0,0,1-3.9.46,19.48,19.48,0,0,1-3.6-.28c-1-.18-2-.42-3-.72a1.88,1.88,0,0,1-1-.46,1.54,1.54,0,0,1-.08-1.06l.4-2a1.51,1.51,0,0,1,.4-.9,1.39,1.39,0,0,1,1.08,0c.83.19,1.78.37,2.84.54a18.76,18.76,0,0,0,3.12.26,6.56,6.56,0,0,0,4-1.16,3.8,3.8,0,0,0,1.58-3.28,3.37,3.37,0,0,0-1.6-3.1,7.8,7.8,0,0,0-4.12-1h-3.64a1.39,1.39,0,0,1-.88-.2,1.08,1.08,0,0,1-.24-.84V160a1.18,1.18,0,0,1,.24-.86,1.37,1.37,0,0,1,.88-.22Z"/><path d="M273.52,99.93a2,2,0,0,1,.14-.62,2.06,2.06,0,0,1,.42-.66l2.08-1.84c.83-.72,1.7-1.51,2.62-2.38s1.84-1.78,2.76-2.76A33.79,33.79,0,0,0,284,88.75a16.48,16.48,0,0,0,1.8-2.92,6.32,6.32,0,0,0,.7-2.74A5.12,5.12,0,0,0,285,79a6.39,6.39,0,0,0-4.3-1.32,11.54,11.54,0,0,0-2.12.2,16,16,0,0,0-2,.5,14.71,14.71,0,0,0-1.68.66c-.5.24-.93.45-1.28.64a1.45,1.45,0,0,1-.9.3c-.2,0-.36-.28-.5-.74l-.72-2.2a1.88,1.88,0,0,1-.08-1,1.46,1.46,0,0,1,.68-.64c.56-.32,1.15-.63,1.76-.94a14.92,14.92,0,0,1,2-.82,17.12,17.12,0,0,1,2.46-.58,18.78,18.78,0,0,1,3-.22,14,14,0,0,1,3.7.5,9.24,9.24,0,0,1,3.26,1.62,8,8,0,0,1,2.32,3,10.5,10.5,0,0,1,.88,4.54,11.13,11.13,0,0,1-1,4.58,21,21,0,0,1-2.56,4.3,35.85,35.85,0,0,1-3.56,4q-2,1.93-3.94,3.66h9.2a1.44,1.44,0,0,1,.88.2,1.08,1.08,0,0,1,.24.84v2.52a1.08,1.08,0,0,1-.24.84,1.44,1.44,0,0,1-.88.2H274.64a1.46,1.46,0,0,1-.88-.2,1.08,1.08,0,0,1-.24-.84Z"/><path d="M223.77,28.58c-.56.27-.94.16-1.16-.32l-1.36-2.6c-.29-.67-.16-1.15.4-1.44l7.24-3.92c.3-.13.56-.24.78-.32a3.45,3.45,0,0,1,1.06-.12h2.36a1.43,1.43,0,0,1,1.06.28,1.52,1.52,0,0,1,.26,1l.08,28a1.24,1.24,0,0,1-.24.88,1.3,1.3,0,0,1-.92.24h-2.72a1.32,1.32,0,0,1-.92-.24,1.24,1.24,0,0,1-.24-.88l-.12-23.48Z"/></g></g></svg>