<svg xmlns="http://www.w3.org/2000/svg" xmlns:xlink="http://www.w3.org/1999/xlink" viewBox="0 0 501 244.02"><defs><style>.cls-1,.cls-2,.cls-3,.cls-4,.cls-5,.cls-6{stroke:#000;stroke-miterlimit:10;}.cls-1{fill:url(#linear-gradient);}.cls-2{fill:url(#linear-gradient-2);}.cls-3{fill:url(#linear-gradient-3);}.cls-4{fill:url(#linear-gradient-4);}.cls-5{fill:url(#linear-gradient-5);}.cls-6{fill:url(#linear-gradient-6);}</style><linearGradient id="linear-gradient" x1="419.46" y1="1" x2="419.46" y2="146.71" gradientUnits="userSpaceOnUse"><stop offset="0" stop-color="#fff"/><stop offset="0.55" stop-color="#fdfdfd"/><stop offset="0.75" stop-color="#f6f6f6"/><stop offset="0.89" stop-color="#ebebeb"/><stop offset="0.93" stop-color="#e6e6e6"/></linearGradient><linearGradient id="linear-gradient-2" x1="81.46" y1="1" x2="81.46" y2="132.52" gradientUnits="userSpaceOnUse"><stop offset="0" stop-color="#fff"/><stop offset="0.59" stop-color="#fdfdfd"/><stop offset="0.81" stop-color="#f6f6f6"/><stop offset="0.96" stop-color="#ebebeb"/><stop offset="1" stop-color="#e6e6e6"/></linearGradient><linearGradient id="linear-gradient-3" x1="250.5" y1="98.52" x2="250.5" y2="-1.98" gradientUnits="userSpaceOnUse"><stop offset="0.01" stop-color="#ffe3b3"/><stop offset="0.35" stop-color="#ffe5ba"/><stop offset="0.86" stop-color="#ffe9cf"/><stop offset="1" stop-color="#ffebd6"/></linearGradient><linearGradient id="linear-gradient-4" x1="250.5" y1="111.6" x2="250.5" y2="101" gradientUnits="userSpaceOnUse"><stop offset="0.01" stop-color="#c6b195"/><stop offset="0.27" stop-color="#cab59a"/><stop offset="0.59" stop-color="#d4c1a9"/><stop offset="0.94" stop-color="#e6d4c2"/><stop offset="1" stop-color="#ead8c7"/></linearGradient><linearGradient id="linear-gradient-5" x1="20.46" y1="111.6" x2="20.46" y2="243.13" xlink:href="#linear-gradient-2"/><linearGradient id="linear-gradient-6" x1="480.46" y1="112" x2="480.46" y2="243.52" xlink:href="#linear-gradient-2"/></defs><g id="Layer_2" data-name="Layer 2"><g id="Desk"><path class="cls-1" d="M429.42,1s-9.5,125.4-10,128.9-9.29,3.5-9.89,0S419.42,1,419.42,1Z"/><path class="cls-2" d="M71.5,1s9.5,125.4,10,128.9,9.29,3.5,9.9,0S81.5,1,81.5,1Z"/><path class="cls-3" d="M500.46,101H.54s0,0,0,0L71,.5H430L500.48,101S500.48,101,500.46,101Z"/><polyline class="cls-4" points="0.5 101 0.5 111.6 500.5 111.6 500.5 101"/><path class="cls-5" d="M10.5,111.6S20,237,20.5,240.5s9.29,3.5,9.9,0-9.9-128.9-9.9-128.9Z"/><path class="cls-6" d="M490.42,112s-9.5,125.4-10,128.9-9.29,3.5-9.89,0S480.42,112,480.42,112Z"/></g></g></svg>