<svg xmlns="http://www.w3.org/2000/svg" viewBox="0 0 73.04 42"><defs><style>.cls-1{fill:#fff;stroke:#000;stroke-linecap:round;stroke-linejoin:round;}.cls-2{fill:#ffcfe2;}.cls-3{fill:#0e3d09;}.cls-4{fill:#efed00;}.cls-5{fill:#cff5ff;}.cls-6{fill:#3f77ff;}.cls-7{fill:#00af1a;}.cls-8{fill:#138f00;}.cls-9{fill:#af7300;}.cls-10{fill:#ff2f34;}</style></defs><g id="Layer_2" data-name="Layer 2"><g id="PencilCup"><g id="Drawing"><polygon class="cls-1" points="0.5 0.5 52.5 0.5 72.54 41.46 6.5 41.5 0.5 0.5"/><path d="M25.35,16.65a6.38,6.38,0,0,1-4-4.29c-.65-2.11,2-3.81,3.68-4.31a7,7,0,0,1,5.91.78c1.66,1.15,2.6,3.55,1.44,5.38a6,6,0,0,1-3.07,2.14,8.52,8.52,0,0,1-3.94.39c-.64-.09-.63.91,0,1,2.63.34,5.85-.46,7.57-2.61a4.94,4.94,0,0,0-.67-6.5,7.74,7.74,0,0,0-6.9-1.7A7.62,7.62,0,0,0,22.1,8.47a4.7,4.7,0,0,0-1.86,3,6.18,6.18,0,0,0,1.58,3.79,6.22,6.22,0,0,0,3.26,2.3.5.5,0,0,0,.27-1Z"/><path d="M24.31,10.86v.52a.41.41,0,0,0,0,.19.53.53,0,0,0,.27.27.41.41,0,0,0,.19,0l.13,0a.45.45,0,0,0,.22-.13.51.51,0,0,0,.15-.35v-.52a.41.41,0,0,0,0-.19.36.36,0,0,0-.11-.16.34.34,0,0,0-.16-.1.32.32,0,0,0-.19-.05l-.13,0a.45.45,0,0,0-.22.13.53.53,0,0,0-.15.35Z"/><path d="M27.84,10.34l.05.52a.41.41,0,0,0,0,.19.53.53,0,0,0,.27.27.41.41,0,0,0,.19,0l.13,0a.38.38,0,0,0,.22-.13l.08-.1a.43.43,0,0,0,.07-.25l-.05-.52a.41.41,0,0,0,0-.19.42.42,0,0,0-.11-.16.29.29,0,0,0-.16-.1.41.41,0,0,0-.19-.05l-.13,0A.54.54,0,0,0,28,10l-.08.1a.45.45,0,0,0-.07.25Z"/><path d="M24.78,13.94l.11.05.18.17a1.75,1.75,0,0,0,.6.36,3.23,3.23,0,0,0,1.2.17,2.58,2.58,0,0,0,2.38-1,.5.5,0,0,0-.87-.5,1,1,0,0,1-.63.41,4.73,4.73,0,0,1-1.06.07,1.74,1.74,0,0,1-.8-.16c-.27-.15-.48-.46-.84-.55a.51.51,0,0,0-.62.35.5.5,0,0,0,.35.61Z"/><path d="M41.89,20.19a3.74,3.74,0,0,0,.47,3.93,5.74,5.74,0,0,0,4,2c1.5.19,3.29.15,4.43-1a4.16,4.16,0,0,0,1-3.94,4.26,4.26,0,0,0-1.06-1.94,3.44,3.44,0,0,1-.86-1c-.21-.51-.38-1-.56-1.54a.52.52,0,0,0-.48-.37,1.65,1.65,0,0,0-1.28.85,3.85,3.85,0,0,0-.32.75c-.08.22-.17.68-.41.79l.38,0a4.5,4.5,0,0,1-.51-.2,2.16,2.16,0,0,0-.61-.1,4,4,0,0,0-1.19.17c-.18.05-.26.1-.42,0a3.22,3.22,0,0,1-.54-.45l-1.23-1a.5.5,0,0,0-.85.35l.1,2.53c0,.64,1,.64,1,0l-.1-2.53-.86.36c.65.52,1.27,1.15,2,1.61s1.39-.11,2.12-.07c.35,0,.64.3,1,.28a1,1,0,0,0,.75-.56c.26-.42.4-1.69,1-1.76L48.31,17a14.24,14.24,0,0,0,.77,2c.3.54.88.84,1.22,1.35a3.42,3.42,0,0,1,.36,3.16c-.55,1.36-1.85,1.71-3.19,1.7a6.1,6.1,0,0,1-3.67-1,2.92,2.92,0,0,1-1-3.46c.29-.58-.58-1.08-.86-.51Z"/><path d="M44.74,21.21v.1a.41.41,0,0,0,0,.19.53.53,0,0,0,.27.27.41.41,0,0,0,.19,0l.13,0a.38.38,0,0,0,.22-.13l.08-.1a.45.45,0,0,0,.07-.25v-.1a.45.45,0,0,0,0-.2.42.42,0,0,0-.11-.16.29.29,0,0,0-.16-.1.31.31,0,0,0-.19,0h-.13a.54.54,0,0,0-.22.13l-.08.1a.48.48,0,0,0-.07.26Z"/><path d="M48.16,20.84V21a.31.31,0,0,0,0,.19.34.34,0,0,0,.1.16.42.42,0,0,0,.16.11.45.45,0,0,0,.2,0l.13,0a.42.42,0,0,0,.22-.13l.08-.1a.72.72,0,0,0,.07-.25v-.16a.45.45,0,0,0,0-.19.42.42,0,0,0-.26-.26.45.45,0,0,0-.19-.05l-.14,0a.61.61,0,0,0-.22.13l-.08.1a.54.54,0,0,0-.06.25Z"/><path d="M47.55,21.83l0,0-.14,0-.09,0h-.09l-.15,0h0a.85.85,0,0,0-.17.06.75.75,0,0,0-.25.25l-.06.14a0,0,0,0,1,0,0,.17.17,0,0,1,0,.07v.07a.31.31,0,0,0,0,.19.31.31,0,0,0,.1.16v0l.14.1,0,0a.9.9,0,0,0,.21.08l.18,0h.13l.11,0,.11,0,.11-.05.14-.11A.57.57,0,0,0,48,22.6l0-.05a.33.33,0,0,0,.06-.19.46.46,0,0,0,0-.2A.32.32,0,0,0,48,22a.33.33,0,0,0-.14-.12.43.43,0,0,0-.38-.05l-.12.05a.39.39,0,0,0-.18.18l0,.05.08-.1,0,.06.1-.08-.07,0,.11-.05-.09,0,.13,0h-.1l.13,0-.09,0,.12.05-.06,0,.1.07s0,0,0,0l.13.49a.08.08,0,0,1,0,0l-.05.12s0,0,0,0l-.08.1,0,0-.1.08,0,0-.12.05.06,0-.13,0h0l-.13,0h0l-.12,0,0,0a.3.3,0,0,0,.18.06.44.44,0,0,0,.2,0,.46.46,0,0,0,.17-.09.29.29,0,0,0,.13-.14.53.53,0,0,0,.05-.39L47.73,22a.39.39,0,0,0-.18-.18Z"/><path d="M47,22.76v.37c0,.12,0,.24,0,.36v-.14s0,0,0,0l0-.12a.05.05,0,0,1,0,0l.08-.1,0,0,.1-.08-.05,0,.12-.05-.07,0,.13,0a3.38,3.38,0,0,1-.78,0h.13a2.66,2.66,0,0,1-.39-.07.56.56,0,0,0-.38.06A.5.5,0,0,0,46,24a5.52,5.52,0,0,0,.71.11,3.87,3.87,0,0,0,.59,0,.73.73,0,0,0,.49-.21A.72.72,0,0,0,48,23.4v-.64a.51.51,0,0,0-.5-.5.5.5,0,0,0-.5.5Z"/><path d="M48,24.25l1.17-.57a.51.51,0,0,0,.23-.29.59.59,0,0,0,0-.39.52.52,0,0,0-.3-.23.59.59,0,0,0-.39.05l-1.16.57a.5.5,0,0,0-.18.68.5.5,0,0,0,.3.23.57.57,0,0,0,.38-.05Z"/><path d="M43.17,22.5a11.45,11.45,0,0,0-2.48.39.5.5,0,0,0-.35.62.5.5,0,0,0,.61.35,11.25,11.25,0,0,1,1.15-.26l.13,0h0l.32,0,.58,0a.5.5,0,0,0,.5-.5.51.51,0,0,0-.5-.5Z"/><path d="M44.26,23.64A9.9,9.9,0,0,0,42,25.76a.56.56,0,0,0-.15.35.51.51,0,0,0,.15.35.5.5,0,0,0,.71,0,9.45,9.45,0,0,1,1-1.09c.18-.16.36-.32.55-.47l0,0,0,0,.15-.12.32-.21a.53.53,0,0,0,.18-.69.51.51,0,0,0-.69-.18Z"/><path d="M51,21.9s0,0,0,0l.1,0,.16-.07.35-.14.69-.26c.47-.17.94-.33,1.42-.47a.5.5,0,1,0-.27-1,28.76,28.76,0,0,0-3,1.1.49.49,0,0,0-.18.68.51.51,0,0,0,.68.18Z"/><path d="M50.36,23.14a32.18,32.18,0,0,0,4,.89.52.52,0,0,0,.62-.35.5.5,0,0,0-.35-.61,33.85,33.85,0,0,1-4-.9.5.5,0,0,0-.26,1Z"/><path d="M14.81,25.84c-.57-.94-1.28-3,.35-3.36,1.42-.32,2.27,1.13,2.58,2.27a.48.48,0,0,0,.35.35c.57.1.92-.18,1.42-.41a5,5,0,0,1,2.09-.42.51.51,0,0,0,.5-.5c0-.71-.6-1.14-.67-1.83a1.58,1.58,0,0,1,1.09-1.68A1.67,1.67,0,0,1,24.4,21c.4.58,1,1.83.23,2.38a.51.51,0,0,0,.12.92c1.81.68,2.56,2.63,2.89,4.39a4.53,4.53,0,0,1-.05,2.89A3.24,3.24,0,0,1,25.45,33c-.9.25-1.84.38-2.76.54a12.74,12.74,0,0,1-3.08.32,4,4,0,0,1-3.79-5A4.69,4.69,0,0,0,16,27.49a2.09,2.09,0,0,0-1.46-1.73c-.61-.21-.87.75-.27,1,1.25.44.5,1.92.46,2.85a5.05,5.05,0,0,0,.78,2.93,5.4,5.4,0,0,0,5,2.33,29.29,29.29,0,0,0,3.36-.51,10.75,10.75,0,0,0,3-.82,3.52,3.52,0,0,0,1.76-1.9,6,6,0,0,0,0-3c-.38-2.23-1.38-4.46-3.63-5.32l.12.92c1.95-1.45.22-4.83-1.89-5a2.55,2.55,0,0,0-2.54,1.41,2.8,2.8,0,0,0-.25,1.51,2.83,2.83,0,0,0,.21.74c.13.29.46.58.44.91l.5-.5a6.13,6.13,0,0,0-1.76.24,5.1,5.1,0,0,0-.74.28c-.17.07-.56.38-.75.35l.35.35c-.47-1.74-2-3.58-4-2.93a2.35,2.35,0,0,0-1.55,1.94A4.25,4.25,0,0,0,14,26.34c.33.55,1.2.05.86-.5Z"/><path d="M15.13,24a.06.06,0,0,0,0,0h0a.77.77,0,0,0,0,.15v.05a.59.59,0,0,0,0,.14s0,.05,0,.07a1.4,1.4,0,0,0,.09.17l.07.1a.39.39,0,0,0,.17.11.24.24,0,0,0,.12,0,.34.34,0,0,0,.2,0,.35.35,0,0,0,.14-.06h0l.14-.11a1.25,1.25,0,0,0,.09-.12.59.59,0,0,0,.06-.14v0a.88.88,0,0,0,0-.16.41.41,0,0,0,0-.19A.53.53,0,0,0,16,23.8a.41.41,0,0,0-.19,0l-.13,0a.38.38,0,0,0-.22.13l-.08.1a.45.45,0,0,0-.07.25h0l0-.13s0,0,0,0l.06-.12,0,0,.08-.1,0,0,.1-.08,0,0,.12-.05h0l.56.23,0,0,.05.12a.25.25,0,0,1,0-.07l0,.13v-.07l0,.13s0,0,0-.05a.34.34,0,0,0,0-.2.28.28,0,0,0-.06-.18.37.37,0,0,0-.13-.15.3.3,0,0,0-.17-.08l-.13,0a.45.45,0,0,0-.25.07l-.1.07a.46.46,0,0,0-.13.22Z"/><path d="M23.2,21.18h0a.86.86,0,0,0-.17,0h0a.94.94,0,0,0-.15.06l-.13.1,0,0-.09.12a1,1,0,0,0-.07.15,1.28,1.28,0,0,0,0,.17.86.86,0,0,0,0,.16,0,0,0,0,1,0,0,.91.91,0,0,0,.07.14l.09.13.13.09s0,0,0,0l.13,0h.18l.17,0h0l.12,0h0l.11-.09h0a.54.54,0,0,0,.1-.16.45.45,0,0,0,0-.2.41.41,0,0,0,0-.19.44.44,0,0,0-.1-.16l-.11-.08a.52.52,0,0,0-.25-.07l-.13,0a.45.45,0,0,0-.22.13l0,0,.1-.08h0l.12,0h0l.13,0h0l.13,0h0l.12,0,0,0,.1.08s0,0,0,0l.07.1a0,0,0,0,1,0,0l.05.11a0,0,0,0,1,0,0l0,.14v0l0,.13s0,0,0,0l-.05.12,0,0-.08.1,0,0-.1.07.05,0-.12.05h0a.45.45,0,0,0,.2,0,.54.54,0,0,0,.16-.1.37.37,0,0,0,.1-.17.31.31,0,0,0,0-.19v-.13a.54.54,0,0,0-.13-.22l-.1-.08a.48.48,0,0,0-.26-.07Z"/><path d="M17.84,29.85a4,4,0,0,0,2,.48,7.52,7.52,0,0,0,2-.09,3.46,3.46,0,0,0,1.71-.95,5.69,5.69,0,0,0,1.27-1.66.51.51,0,0,0-.18-.69.5.5,0,0,0-.68.18,4.92,4.92,0,0,1-1,1.35,2.68,2.68,0,0,1-1.37.81,6.5,6.5,0,0,1-1.65,0A3.27,3.27,0,0,1,18.34,29c-.55-.34-1.05.53-.5.86Z"/><path class="cls-2" d="M23.68,26l.2-.11-.11.05a1.6,1.6,0,0,1,.39-.11l-.14,0a1.71,1.71,0,0,1,.32,0l-.26-.93-.66.32a.48.48,0,0,0-.23.29.53.53,0,0,0,0,.39.5.5,0,0,0,.3.23l.13,0a.59.59,0,0,0,.26-.07l.66-.32.1-.08a.29.29,0,0,0,.1-.16.45.45,0,0,0,0-.32.61.61,0,0,0-.13-.22.53.53,0,0,0-.35-.15,2,2,0,0,0-1.17.29.57.57,0,0,0-.23.3.53.53,0,0,0,0,.39.5.5,0,0,0,.3.23.53.53,0,0,0,.39-.05Z"/><path class="cls-2" d="M16.89,27.58a2.46,2.46,0,0,1,.39-.22l-.12.05a2,2,0,0,1,.42-.12H17.4l-.12-.05h0l-.1-.08s0,0,0,0l-.08-.1s0,0,0,0L17.12,27a.06.06,0,0,1,0,0l0-.13a0,0,0,0,1,0,.05l0-.13a.43.43,0,0,1,0,0l.05-.12s0,0,0,0l.07-.1a.12.12,0,0,1,0,.05l.1-.08-.07,0,.12-.05a.71.71,0,0,1-.24.06l-.11,0a.74.74,0,0,0-.22.1.35.35,0,0,0-.14.13.56.56,0,0,0-.09.17.5.5,0,0,0,.35.62.5.5,0,0,0,.38-.06l.08,0-.12.05a.73.73,0,0,1,.2-.05,1.42,1.42,0,0,0,.29-.1.7.7,0,0,0,.31-.28.53.53,0,0,0,.08-.17,0,0,0,0,1,0,0,1,1,0,0,0,0-.17.75.75,0,0,0-.18-.45.57.57,0,0,0-.15-.12.69.69,0,0,0-.32-.08,2,2,0,0,0-.54.13,2.89,2.89,0,0,0-.55.29.5.5,0,0,0-.18.68.5.5,0,0,0,.3.23.48.48,0,0,0,.39-.05Z"/><path class="cls-2" d="M44.62,23.31a.5.5,0,0,0,0-1,.5.5,0,0,0,0,1Z"/><path class="cls-2" d="M49.69,22.64a.5.5,0,0,0,0-1,.5.5,0,0,0,0,1Z"/><path class="cls-2" d="M23.62,13.07a.5.5,0,0,0,0-1,.5.5,0,0,0,0,1Z"/><path class="cls-2" d="M29.83,12.45a.5.5,0,0,0,0-1,.5.5,0,0,0,0,1Z"/><path class="cls-3" d="M42.07,39.48a13.18,13.18,0,0,1,3.79-4.73,39.36,39.36,0,0,1,5.32-3.82C53.07,29.79,55,28.77,57,27.82a16.19,16.19,0,0,1,3.1-1.31,24.49,24.49,0,0,1,3.43-.08c.64-.06.64-1.06,0-1a33.63,33.63,0,0,0-3.48.07,14.54,14.54,0,0,0-3.33,1.35,65.61,65.61,0,0,0-6.25,3.34,39.29,39.29,0,0,0-5.51,4,14,14,0,0,0-3.88,5c-.24.6.72.85,1,.27Z"/><path class="cls-3" d="M61.34,28.1a3.87,3.87,0,0,1,2.79.91l.36-.85A22.38,22.38,0,0,1,59.58,28c-.43-.06-.93.48-.49.84,1.9,1.52,4.62,1.59,6.36,3.31l.22-.83a7.35,7.35,0,0,1-2.34,0l-2.48-.22-5-.43c-.58-.05-.66.83-.14,1,1.87.54,3.73,1.13,5.56,1.77.9.31,1.8.64,2.68,1,.45.16.89.34,1.34.51s.85.27.94.67l.48-.63a138.45,138.45,0,0,1-14.11-.89v1a20.93,20.93,0,0,1,7.07,1q1.68.51,3.33,1.14a6.16,6.16,0,0,1,2.58,1.56L66,37.9a65.64,65.64,0,0,1-7.89-1.09c-2.53-.37-5.14-.23-7.61-.88l-.14,1a22.26,22.26,0,0,1,6.25,1.68l.12-.91a8.94,8.94,0,0,1-4.65.23l-5.14-.74a.51.51,0,0,0-.49.84l2,1.91.35-.85q-2.64-.06-5.28-.21v1l1.23-.11c.63,0,.64-1,0-1l-1.23.11a.5.5,0,0,0,0,1q2.64.15,5.28.21a.51.51,0,0,0,.35-.86L47.12,37.3l-.49.83c1.86.27,3.72.55,5.58.8A9.18,9.18,0,0,0,57,38.64c.34-.14.56-.72.12-.91a23.61,23.61,0,0,0-6.75-1.82c-.56-.06-.66.85-.13,1,2.56.67,5.24.52,7.85.92A62.31,62.31,0,0,0,66,38.9a.51.51,0,0,0,.36-.85,6.43,6.43,0,0,0-2.57-1.65c-1.16-.47-2.36-.88-3.56-1.24a21.82,21.82,0,0,0-7.56-1.09.5.5,0,0,0,0,1A138.45,138.45,0,0,0,66.74,36a.51.51,0,0,0,.48-.64c-.16-.76-.87-1-1.53-1.32-1.06-.43-2.14-.83-3.23-1.22C60.34,32,58.18,31.32,56,30.7l-.13,1,5.21.45,2.49.22a7.13,7.13,0,0,0,2.35,0,.5.5,0,0,0,.23-.83c-1.78-1.76-4.46-1.79-6.36-3.32l-.49.83a23.61,23.61,0,0,0,5.18.17c.39,0,.71-.55.35-.85a4.94,4.94,0,0,0-3.5-1.21c-.64,0-.64,1,0,1Z"/><path class="cls-4" d="M10.38,9.33A1.91,1.91,0,0,1,8,8.12a1.89,1.89,0,0,1,1.2-2.37,2.21,2.21,0,0,1,2.52,1.16,3.35,3.35,0,0,1,.37.79.68.68,0,0,1-.21.65,1.5,1.5,0,0,1-1.32.74A1.67,1.67,0,0,1,9.42,8a1.35,1.35,0,0,1-.12-.74,1.11,1.11,0,0,1,.53-.6,1.32,1.32,0,0,1,.67-.3c.22,0,.27.23.31.42a8.36,8.36,0,0,1,.14.85c0,.06,0,.22,0,.27s0,.1,0,0c0,.06-.2.1-.27.13a1.66,1.66,0,0,1-.82.17c-.25,0-.33-.21-.38-.45s0-.25-.05-.38a.11.11,0,0,1,0-.08c0,.07,0,0,0,0s.2,0,.31,0a.72.72,0,0,1,.38.1.4.4,0,0,1,.16.35c0,.13-.17.17-.32.14a1,1,0,0,1-.55-.41c-.14-.16-.32-.39-.22-.6a1.56,1.56,0,0,0,.2-.41.71.71,0,0,0-.1-.57c-.28-.43-.78-.31-1.1,0a2.36,2.36,0,0,0-.79,1.88A1.33,1.33,0,0,0,8.86,9.06a1.29,1.29,0,0,0,1-.57,2,2,0,0,0,.28-1.08l-.06.25s-.12.07-.11.08a1.48,1.48,0,0,0,.2,0,.72.72,0,0,1,.29,0l.06,0c.07,0,0,.06,0,0a.51.51,0,0,0,.56.74A2.21,2.21,0,0,0,12.17,8a.5.5,0,0,0,0-.71.5.5,0,0,0-.7,0,1.23,1.23,0,0,1-.65.28l.56.74a1.08,1.08,0,0,0-.76-1.53,2,2,0,0,0-1,0,.72.72,0,0,0-.43.37,1.75,1.75,0,0,0-.08.55c0,.17-.15.38-.35.36s-.21-.19-.23-.34A1.26,1.26,0,0,1,9.07,6.5l-.25.07-.1,0-.18-.18c0-.07.08-.26,0-.14a1.07,1.07,0,0,0-.13.21,1,1,0,0,0-.11.6,2.07,2.07,0,0,0,.49,1.06,1.7,1.7,0,0,0,1.86.69A1.24,1.24,0,0,0,11.21,7a1.7,1.7,0,0,0-1.93-.64,1,1,0,0,0-.77.82,2.43,2.43,0,0,0,.13,1.07,1.53,1.53,0,0,0,1.86.92,3.12,3.12,0,0,0,1-.38A1,1,0,0,0,12,7.66a3.35,3.35,0,0,0-.62-2,1.64,1.64,0,0,0-2.08.15,2.42,2.42,0,0,0-.78.78,1.81,1.81,0,0,0-.15,1.21c.28,1.48,1.81,2.8,3.31,2.07a2.82,2.82,0,0,0,.84-.66,2.63,2.63,0,0,0,.6-.9,2.54,2.54,0,0,0-.58-2.11A3.65,3.65,0,0,0,11,4.89a2.9,2.9,0,0,0-2-.11,2.87,2.87,0,0,0,.67,5.62,2.51,2.51,0,0,0,1-.11.5.5,0,0,0-.27-1Z"/><path class="cls-4" d="M14.3,5.09c.18-.17.37-.32.57-.48l-.1.08c.11-.09.23-.17.35-.25a.57.57,0,0,0,.23-.3.53.53,0,0,0,0-.39.5.5,0,0,0-.3-.23.53.53,0,0,0-.39,0,12.93,12.93,0,0,0-1,.81.54.54,0,0,0-.14.36.5.5,0,0,0,.14.35.53.53,0,0,0,.36.15.58.58,0,0,0,.35-.15Z"/><path class="cls-4" d="M14.19,7.19a1.81,1.81,0,0,0,.49.18,1.89,1.89,0,0,0,.53,0,.41.41,0,0,0,.19-.05.34.34,0,0,0,.16-.1.5.5,0,0,0,0-.71l-.1-.08a.54.54,0,0,0-.25-.06,1.37,1.37,0,0,1-.35,0l.14,0a1.89,1.89,0,0,1-.34-.09l.12,0-.08,0a.51.51,0,0,0-.69.18.53.53,0,0,0,0,.39.48.48,0,0,0,.23.29Z"/><path class="cls-4" d="M13.53,10.23a7.45,7.45,0,0,1,.52.6l-.08-.1c.09.11.17.23.25.35a.57.57,0,0,0,.3.23.5.5,0,0,0,.62-.35.56.56,0,0,0-.05-.38,7.29,7.29,0,0,0-.86-1.05.5.5,0,0,0-.85.35.51.51,0,0,0,.15.35Z"/><path class="cls-4" d="M10.84,11.93v0l0-.13a5.06,5.06,0,0,1,0,1.23l0-.14c0,.14,0,.27-.07.41a.5.5,0,1,0,1,.26,5.16,5.16,0,0,0,.13-1,6.4,6.4,0,0,0-.06-1,.57.57,0,0,0-.23-.3.53.53,0,0,0-.39,0,.57.57,0,0,0-.3.23.74.74,0,0,0-.05.39Z"/><path class="cls-4" d="M7.28,12.49a.22.22,0,0,0,0-.08l0,.14a1.85,1.85,0,0,1,0-.47l0,.13a1.69,1.69,0,0,1,.12-.44l0,.12,0-.05a.33.33,0,0,0,.06-.19.28.28,0,0,0,0-.2.5.5,0,0,0-.22-.29.49.49,0,0,0-.39-.06.5.5,0,0,0-.3.23c0,.12-.1.24-.14.36a2.66,2.66,0,0,0-.07.39,2.14,2.14,0,0,0,0,.67.5.5,0,0,0,.23.3.51.51,0,0,0,.38,0,.47.47,0,0,0,.3-.23l0-.12a.39.39,0,0,0,0-.26Z"/><path class="cls-4" d="M4.18,8.81a1.66,1.66,0,0,1,.38.11l-.12-.05a2.22,2.22,0,0,1,.37.21L4.71,9l.06.05a.39.39,0,0,0,.16.1.34.34,0,0,0,.2,0,.52.52,0,0,0,.35-.14.5.5,0,0,0,0-.71,2.16,2.16,0,0,0-1-.5.46.46,0,0,0-.2,0,.33.33,0,0,0-.19.06.53.53,0,0,0-.23.3.5.5,0,0,0,0,.38.46.46,0,0,0,.3.23Z"/><path class="cls-4" d="M3.7,5.72a6.93,6.93,0,0,0,1.51.09.51.51,0,0,0,.5-.5.5.5,0,0,0-.5-.5,6.88,6.88,0,0,1-1.2,0h.14L4,4.76a.5.5,0,0,0-.61.35.5.5,0,0,0,.35.61Z"/><path class="cls-4" d="M7.23,2.75l.12.62a.46.46,0,0,0,.09.17.43.43,0,0,0,.14.13.33.33,0,0,0,.19.06.34.34,0,0,0,.2,0,.5.5,0,0,0,.3-.23l.05-.12a.57.57,0,0,0,0-.26l-.13-.63a.32.32,0,0,0-.09-.17A.44.44,0,0,0,8,2.18a.41.41,0,0,0-.18-.05.34.34,0,0,0-.2,0,.53.53,0,0,0-.3.23l0,.12a.42.42,0,0,0,0,.27Z"/><path class="cls-4" d="M10.7,3.78l.51-.91a.49.49,0,0,0,0-.39.52.52,0,0,0-.23-.3.5.5,0,0,0-.38-.05.53.53,0,0,0-.3.23l-.51.92A.5.5,0,0,0,10,4a.46.46,0,0,0,.38,0,.52.52,0,0,0,.3-.23Z"/><path class="cls-5" d="M38.18,3.87c-1.2.23-3.31,1.33-2,2.74a2.5,2.5,0,0,0,1.9.69,3.37,3.37,0,0,0,1.08-.23c.35-.15.69-.47,1.08-.46a3.46,3.46,0,0,1,1.55.73,2.66,2.66,0,0,0,1.65.5,2.05,2.05,0,0,0,1.38-.9,3.16,3.16,0,0,1,.58-.68c.42-.3.83,0,1.2.2a4.31,4.31,0,0,0,2.06.68,3,3,0,0,0,2.23-.47A7.07,7.07,0,0,0,52.1,4.73a1,1,0,0,0-.47-1.56,3.42,3.42,0,0,0-2.08-.39c-.9.11-1.49.76-2.32,1A4.23,4.23,0,0,1,45,3.35a3.6,3.6,0,0,0-2.27-.07c-.87.3-1.62.94-2.59.76-.78-.15-1.56-.55-2.34-.2a2.16,2.16,0,0,0-1.22,1.8.67.67,0,0,0,.57.59,1,1,0,0,0,.41,0c.15,0,.31-.24.47-.24a.5.5,0,0,0,0-1,1,1,0,0,0-.42.07l-.16.08c-.2.08-.21.13,0,.18l.15.35a1.32,1.32,0,0,1,.47-.79,1,1,0,0,1,.9-.09,8.08,8.08,0,0,0,1.61.33c1.2,0,2.14-1.08,3.34-1s2.06.8,3.2.67,2-1.26,3.35-1a1.9,1.9,0,0,1,.83.34l.06-.1-.1.19L51,4.6c-.32.6-.58,1.45-1.34,1.54A4.19,4.19,0,0,1,47.94,6c-.55-.18-1-.61-1.55-.8-1-.33-1.65.27-2.22,1-.27.34-.54.69-1,.64A3.43,3.43,0,0,1,42,6.25a2.49,2.49,0,0,0-2.64-.37,2.15,2.15,0,0,1-2.14.22c-1.05-.61.79-1.17,1.28-1.26s.36-1.09-.27-1Z"/><path class="cls-5" d="M38.27,4.63a2.16,2.16,0,0,1-.33.8c-.31.47.27.86.68.69l1.28-.55-.69-.68a1.38,1.38,0,0,1-.68.58l.38.91,1.16-.68a1.53,1.53,0,0,1,.62-.25c.15,0,.49,0,.33.24a.5.5,0,0,0,.56.74,4.08,4.08,0,0,0,1.51-1l-.86-.35A2,2,0,0,1,42,6a.5.5,0,0,0,.86.5,11.91,11.91,0,0,1,1.49-1.83l-.84-.22a2.55,2.55,0,0,1-.14,1.34c-.17.49.5.83.84.49L45.5,5l-.79-.1.06.26a.51.51,0,0,0,.5.5,1.2,1.2,0,0,0,.56-.15l.24-.18c.19-.12.2-.14,0-.06.17.27.29.48.63.56a1.31,1.31,0,0,0,.91-.16,2.33,2.33,0,0,0,.46-.37A3.07,3.07,0,0,1,48.34,5c.14-.16.22-.16.23,0-.39.49.26,1.19.71.7l.93-1-.84-.22a2.3,2.3,0,0,1,.11.9.51.51,0,0,0,.85.36l.54-.58c.44-.47-.27-1.18-.71-.71l-.53.58.85.35a2.93,2.93,0,0,0-.15-1.17A.5.5,0,0,0,49.5,4l-.93,1,.71.7a1.07,1.07,0,0,0-1.41-1.58c-.22.15-.48.6-.74.66s0,.07-.18-.09-.11-.24-.25-.34A.8.8,0,0,0,46,4.24c-.26,0-.53.4-.76.42l.5.5a1,1,0,0,0-.19-.76.51.51,0,0,0-.79-.1L43.53,5.56l.84.49a3.83,3.83,0,0,0,.14-1.87A.5.5,0,0,0,43.67,4,12.35,12.35,0,0,0,42,6l.86.5a3.08,3.08,0,0,0,.34-1.43.5.5,0,0,0-.85-.35,2.93,2.93,0,0,1-1.06.75l.56.74a1.16,1.16,0,0,0-.69-1.72c-1-.29-2,.58-2.78,1-.47.27-.16,1.12.38.91a2.59,2.59,0,0,0,1.29-1c.3-.46-.27-.86-.69-.68l-1.27.54.68.69a2.89,2.89,0,0,0,.44-1c.13-.63-.84-.9-1-.27Z"/><path class="cls-6" d="M25.87,38a28.07,28.07,0,0,0-9.67-.44,16.21,16.21,0,0,0-2.39.54c-.52.16-1.35.3-1.56.9-.44,1.27,2.12,1.62,2.87,1.66,1.71.09,3.46,0,5.18-.06l5.4-.08c1.29,0,3.18.23,3.58-1.4A.85.85,0,0,0,28.79,38a5.67,5.67,0,0,0-1-.1l-1.61-.11a44.27,44.27,0,0,0-11.65.89c-.58.12-.4,1,.14,1a13.65,13.65,0,0,0,5-.61l-.26-1-3.11,1.19a.5.5,0,0,0,.27,1l4.13-.67-.64-.48-.15.22c-.54.36,0,1.22.5.86a40.23,40.23,0,0,1,4.67-2.6L24.38,37a2.66,2.66,0,0,1-1.28,1.48.5.5,0,0,0,.5.87l1.25-.66c.5-.26.15-1.13-.38-.92l-2.44,1,.49.84a4.27,4.27,0,0,1,2-1l-.62-.62-.29,1.52c-.08.4.34.82.73.56l1.33-.85-.75-.43a2.09,2.09,0,0,1,0,.61.52.52,0,0,0,.35.62,1.24,1.24,0,0,0,1-.11c.1,0,.36-.26.47-.24s.19.2.29.27c.59.4,1.35-.17,1.58-.72.69-1.61-1.3-2.16-2.47-2.17a25.94,25.94,0,0,0-3.05.14A3.42,3.42,0,0,1,21.61,37a4.14,4.14,0,0,0-1.43-.25c-1,0-2,.21-3,.33a20.75,20.75,0,0,0-2.92.51c-.62.17-1.62.57-1.19,1.4s1.6,1,2.35,1,.64-.95,0-1a2.8,2.8,0,0,1-1.1-.28,1.13,1.13,0,0,1-.35-.21c.12.21.25.1.45,0a16.46,16.46,0,0,1,2-.4c.74-.1,1.5-.18,2.25-.27a6,6,0,0,1,2.28-.07,4.83,4.83,0,0,0,1.81.28c.73-.06,1.46-.14,2.2-.16a10.27,10.27,0,0,1,1.92,0,1.27,1.27,0,0,1,.74.32c.13.18.1.73-.22.62l.3.23c-.23-.3-.41-.56-.82-.6a1.31,1.31,0,0,0-.61.12c-.21.08-.51.36-.75.27l.35.62a3.27,3.27,0,0,0,.07-.88.5.5,0,0,0-.75-.43l-1.33.85.73.56.29-1.51a.5.5,0,0,0-.61-.62,5.5,5.5,0,0,0-2.45,1.3c-.35.32,0,1,.49.83l2.43-1-.38-.91-1.25.65.5.87a3.71,3.71,0,0,0,1.74-2.08.5.5,0,0,0-.73-.56,38.64,38.64,0,0,0-4.67,2.6l.5.86a1.37,1.37,0,0,0,.65-1.08c.05-.35-.35-.52-.63-.48l-4.13.67.27,1L19.7,39c.59-.22.36-1.16-.26-1a12.93,12.93,0,0,1-4.78.57l.13,1a43.05,43.05,0,0,1,8.4-.93c1.36,0,2.73,0,4.09.14a3.28,3.28,0,0,1,1,.08l0-.1a.6.6,0,0,1-.14.3.79.79,0,0,1-.38.27,7.14,7.14,0,0,1-2.22.1l-8.48.13c-.62,0-1.25,0-1.88,0a8.08,8.08,0,0,1-.86-.09L14,39.45a3.33,3.33,0,0,0-.59-.26l-.08,0c-.16.18-.16.23,0,.14s.31-.12.44-.16c.31-.1.64-.2,1-.28a16.73,16.73,0,0,1,2-.39,27.3,27.3,0,0,1,8.92.47c.63.12.9-.84.26-1Z"/><path class="cls-7" d="M14.66,39.47h1.58a.51.51,0,0,0,.48-.37.55.55,0,0,0-.1-.52.77.77,0,0,0-.38-.26,1.42,1.42,0,0,0-.36-.05l-.31,0a4.56,4.56,0,0,0-1.27.16A.5.5,0,0,0,14,39a.51.51,0,0,0,.61.35,2.63,2.63,0,0,1,.47-.1c.1,0-.11,0,0,0h.1l.24,0H16c-.07,0-.08,0,0,0s.09.05,0,0c0,0,0,0-.05,0a.46.46,0,0,1-.1-.38l.48-.37H14.66a.5.5,0,0,0-.5.5.5.5,0,0,0,.5.5Z"/><path class="cls-8" d="M34,30.77a1.78,1.78,0,0,1-1.28-2.19,3.82,3.82,0,0,1,.82-1.47A1.93,1.93,0,0,1,35,26.68a4.18,4.18,0,0,1,2.81,1.2c.3.29.74.76.5,1.21A2.82,2.82,0,0,1,37,30a7.6,7.6,0,0,1-1.74.53,1.33,1.33,0,0,1-1.36-.32,2.18,2.18,0,0,1-.37-1.29,1.56,1.56,0,0,1,.35-1.22,1.28,1.28,0,0,1,.76-.2c.3,0,.61,0,.91,0a1.76,1.76,0,0,1,1.4.52c.8,1-.9,1.6-1.65,1.63a1.51,1.51,0,0,1-.86-.19c-.21-.16-.08-.4,0-.59.22-.41.67-.85,1.17-.64a.46.46,0,0,1-.08.9.89.89,0,0,1-.43,0l-.15,0a.33.33,0,0,1-.12-.05c-.06-.06-.08,0,0,.08s.27-.09.33-.1a1.23,1.23,0,0,0,.19,0h.1c-.1-.09-.09-.2.05-.34a.5.5,0,0,0,.5.86.76.76,0,0,0,.29-1A1,1,0,0,0,35.1,28a1.42,1.42,0,0,0-1.17.6.91.91,0,0,0,.35,1.25,1.81,1.81,0,0,0,2.39-.4,1.42,1.42,0,0,0-.53-2.1,1.83,1.83,0,0,0-2.26.55c-.54.64-.89,1.66-.13,2.28a2.87,2.87,0,0,0,2.73.19c.79-.31,1.66-.89,1.66-1.84a2.07,2.07,0,0,0-1.38-1.84,3.68,3.68,0,0,0-1.35-.22A6.45,6.45,0,0,0,34,26.6c-1.72.4-1.79,2.92-1,4.14a2.32,2.32,0,0,0,2.44.79,8.21,8.21,0,0,0,2.76-1,2,2,0,0,0,1.15-2.07,3.79,3.79,0,0,0-1.72-2,5.26,5.26,0,0,0-2.78-.78,3.61,3.61,0,0,0-1.41.27A2.7,2.7,0,0,0,32.35,27a3.34,3.34,0,0,0-.59,2.87,2.82,2.82,0,0,0,1.95,1.83.5.5,0,0,0,.27-1Z"/><path class="cls-9" d="M36.46,39.77l.25-3.35a21.32,21.32,0,0,0,.15-3.09A4.14,4.14,0,0,0,36,30.91a6.75,6.75,0,0,0-2.21-1.59c-.56-.29-1.07.57-.5.87a5.84,5.84,0,0,1,2,1.37A3.57,3.57,0,0,1,35.87,34c0,1.93-.27,3.87-.41,5.79-.05.64.95.64,1,0Z"/><path class="cls-9" d="M36.75,31.76a5.33,5.33,0,0,0-.09-.93s0-.06,0-.07,0-.09,0-.14a1.55,1.55,0,0,1,0-.22s0,0,0-.08h0a1.42,1.42,0,0,1,0-.2,1,1,0,0,1,0-.16c0-.07,0,.06,0,0l0-.08.09-.15.06-.09s0,0,0,0a3,3,0,0,1,.25-.25c-.05,0,0,0,0,0l.07-.05.18-.09a.51.51,0,0,0,.18-.69.53.53,0,0,0-.69-.18,2.43,2.43,0,0,0-1.19,1.42,2.23,2.23,0,0,0-.09,1,6,6,0,0,1,.1,1,.5.5,0,0,0,.5.5.51.51,0,0,0,.5-.5Z"/><path class="cls-9" d="M36.25,31.45A76,76,0,0,1,36.38,40c0,.64,1,.64,1,0a76,76,0,0,0-.13-8.54c0-.64-1-.64-1,0Z"/><path class="cls-9" d="M37,30.62a6.78,6.78,0,0,0-1.27-.24.51.51,0,0,0-.35.15.5.5,0,0,0,0,.71.55.55,0,0,0,.35.14l.26,0h-.13a6.09,6.09,0,0,1,.87.18.48.48,0,0,0,.39,0,.53.53,0,0,0,.23-.3.51.51,0,0,0-.35-.61Z"/><path class="cls-9" d="M35.17,32.16a17.94,17.94,0,0,1-.44,7.78.53.53,0,0,0,.35.62,4.66,4.66,0,0,0,2.25.19.49.49,0,0,0,.35-.61.5.5,0,0,0-.61-.35,3.59,3.59,0,0,1-1.72-.2l.35.62a19.28,19.28,0,0,0,.43-8.31c-.1-.64-1.07-.37-1,.26Z"/><path class="cls-9" d="M36,31.87a2.13,2.13,0,0,0-.54-1.38,4.79,4.79,0,0,0-1.07-.88.51.51,0,0,0-.69.18.51.51,0,0,0,.18.68l.48.34c-.12-.08,0,0,0,0a.52.52,0,0,1,.11.1,2.18,2.18,0,0,1,.22.21l0,.05s0,.08,0,0a.76.76,0,0,0,.08.11.75.75,0,0,0,.07.12l0,.05s.05.1,0,0,0,0,0,0a.64.64,0,0,0,0,.07.93.93,0,0,1,0,.13.13.13,0,0,0,0,.06c0,.06,0-.12,0,0s0,.1,0,.15a.5.5,0,0,0,.5.5.51.51,0,0,0,.5-.5Z"/><path class="cls-9" d="M37.17,31.17a.71.71,0,0,1,.1-.14l-.08.1a2.52,2.52,0,0,1,.4-.4l-.1.08a2.29,2.29,0,0,1,.5-.3l-.12,0a2.44,2.44,0,0,1,.57-.16l-.13,0h0a.5.5,0,0,0,.35-.14.5.5,0,0,0,0-.71.51.51,0,0,0-.35-.15,2.89,2.89,0,0,0-1.18.39,3,3,0,0,0-.88.86.51.51,0,0,0,.18.69.52.52,0,0,0,.69-.18Z"/><path class="cls-10" d="M34,28.28a.5.5,0,0,0,0-1,.5.5,0,0,0,0,1Z"/><path class="cls-10" d="M36.71,27.86a.5.5,0,0,0,0-1,.5.5,0,0,0,0,1Z"/><path class="cls-10" d="M33,31.84a.5.5,0,0,0,0-1,.5.5,0,0,0,0,1Z"/></g></g></g></svg>