<svg xmlns="http://www.w3.org/2000/svg" viewBox="0 0 143.73 143.73"><defs><style>.cls-1{fill:#fff;}.cls-1,.cls-2{stroke:#000;stroke-width:2px;}.cls-2{fill:none;}</style></defs><g id="Layer_2" data-name="Layer 2"><g id="PencilCup"><rect class="cls-1" x="1" y="1" width="141.73" height="141.73" rx="12"/><g id="Rectangle_23" data-name="Rectangle 23"><rect x="38.87" y="19.51" width="71" height="8.5"/><rect class="cls-2" x="38.87" y="19.51" width="71" height="8.5"/></g><g id="Rectangle_27" data-name="Rectangle 27"><rect x="101.3" y="53.61" width="8.5" height="35.76"/><rect class="cls-2" x="101.3" y="53.61" width="8.5" height="35.76"/></g><g id="Rectangle_25" data-name="Rectangle 25"><rect x="69.67" y="120.37" width="49.87" height="8"/><rect class="cls-2" x="69.67" y="120.37" width="49.87" height="8"/></g><g id="Rectangle_26" data-name="Rectangle 26"><rect x="88.79" y="90.1" width="31.08" height="8.5"/><rect class="cls-2" x="88.79" y="90.1" width="31.08" height="8.5"/></g><g id="Rectangle_24" data-name="Rectangle 24"><rect x="111.79" y="89.37" width="8.5" height="39"/><rect class="cls-2" x="111.79" y="89.37" width="8.5" height="39"/></g><g id="Rectangle_9" data-name="Rectangle 9"><rect x="73.87" y="53.08" width="36" height="14.17"/><rect class="cls-2" x="73.87" y="53.08" width="36" height="14.17"/></g><g id="Rectangle_10" data-name="Rectangle 10"><rect x="65.51" y="20.28" width="12" height="108.09"/><rect class="cls-2" x="65.51" y="20.28" width="12" height="108.09"/></g><g id="Rectangle_11" data-name="Rectangle 11"><rect x="25.47" y="114.22" width="51.4" height="14.17"/><rect class="cls-2" x="25.47" y="114.22" width="51.4" height="14.17"/></g><g id="Rectangle_12" data-name="Rectangle 12"><rect x="24.38" y="79.87" width="14.17" height="48.48"/><rect class="cls-2" x="24.38" y="79.87" width="14.17" height="48.48"/></g></g></g></svg>