<svg xmlns="http://www.w3.org/2000/svg" viewBox="0 0 500 90"><g id="Layer_2" data-name="Layer 2"><g id="Layer_1-2" data-name="Layer 1"><polygon points="90 10 90 0 0 0 0 10 30 10 30 80 10 80 10 60 0 60 0 90 40 90 40 10 90 10"/><path d="M50,40V90H90V40ZM85,80H60V50H85Z"/><polygon points="140 40 135 40 135 80 110 40 100 40 100 90 110 90 110 50 135 90 140 90 140 40"/><polygon points="330 40 325 40 325 80 300 40 290 40 290 90 300 90 300 50 325 90 330 90 330 40"/><polygon points="150 90 190 90 190 65 170 65 170 70 185 70 185 85 160 85 160 50 190 50 190 40 150 40 150 90"/><polygon points="200 0 200 90 260 90 260 40 230 40 230 45 255 45 255 85 210 85 210 10 245 10 245 43 250 43 250 0 200 0"/><polygon points="340 0 340 90 400 90 400 40 370 40 370 45 395 45 395 85 350 85 350 10 385 10 385 43 390 43 390 0 340 0"/><rect x="270" y="40" width="10" height="50"/><polygon points="418 65 419 60 410 90 420 90 428.33 65 418 65"/><polygon points="445 65 439.44 65 445 90 450 90 445 65"/><polygon points="435 45 438.33 60 444 60 440 40 425 40 419 60 430 60 435 45"/><rect x="444.5" y="59.95" height="5.1" transform="translate(-3.63 88.39) rotate(-11.31)"/><polygon points="428.33 65 430 60 419 60 418 65 428.33 65"/><polygon points="439.44 65 445 65 444 60 438.33 60 439.44 65"/><polygon points="430 60 428.33 65 439.44 65 438.33 60 430 60"/><polygon points="460 40 500 40 500 50 470 50 470 65 500 65 500 70 470 70 470 85 500 85 500 90 460 90 460 40"/></g></g></svg>