<svg xmlns="http://www.w3.org/2000/svg" viewBox="0 0 500 90"><g id="Layer_2" data-name="Layer 2"><g id="Layer_1-2" data-name="Layer 1"><polygon points="90 10 90 0 0 0 0 10 30 10 30 80 10 80 10 60 0 60 0 90 40 90 40 10 90 10"/><path d="M50,40V90H90V40ZM85,80H60V50H85Z"/><polygon points="140 40 135 40 135 80 110 40 100 40 100 90 110 90 110 50 135 90 140 90 140 40"/><polygon points="330 40 325 40 325 80 300 40 290 40 290 90 300 90 300 50 325 90 330 90 330 40"/><polygon points="150 90 190 90 190 65 170 65 170 70 185 70 185 85 160 85 160 50 190 50 190 40 150 40 150 90"/><path d="M250,40V0H200V90h60V40Zm5,45H210V10h35V40H230v5h25Z"/><path d="M390,40V0H340V90h60V40Zm5,45H350V10h35V40H370v5h25Z"/><rect x="270" y="40" width="10" height="50"/><path d="M445,65h0l-1-5h0l-4-20H425l-6,20-9,30h10l8.33-25h11.12L445,90h5Zm-15-5,5-15,3.33,15Z"/><polygon points="460 40 500 40 500 50 470 50 470 65 500 65 500 70 470 70 470 85 500 85 500 90 460 90 460 40"/></g></g></svg>