<svg xmlns="http://www.w3.org/2000/svg" xmlns:xlink="http://www.w3.org/1999/xlink" viewBox="0 0 29 78.42"><defs><style>.cls-1{fill:none;}.cls-1,.cls-2,.cls-3,.cls-4,.cls-5,.cls-6{stroke:#000;}.cls-1,.cls-2,.cls-3,.cls-4{stroke-miterlimit:10;}.cls-2,.cls-6{fill:#ea9e65;}.cls-3{fill:#fff3e7;}.cls-4{fill:#00ad3a;}.cls-5{fill:#fc3d62;}.cls-5,.cls-6{stroke-linecap:round;stroke-linejoin:round;}.cls-7{fill:url(#linear-gradient);}</style><linearGradient id="linear-gradient" x1="14.5" y1="24.94" x2="14.5" y2="77.92" gradientUnits="userSpaceOnUse"><stop offset="0.57" stop-color="#d0efff"/><stop offset="0.71" stop-color="#ceedfd"/><stop offset="0.78" stop-color="#c8e6f5"/><stop offset="0.83" stop-color="#bedae8"/><stop offset="0.87" stop-color="#afc9d6"/><stop offset="0.91" stop-color="#9bb3be"/><stop offset="0.94" stop-color="#8398a0"/><stop offset="0.97" stop-color="#67787e"/><stop offset="1" stop-color="#4b585b"/><stop offset="1" stop-color="#4e5c5f"/><stop offset="1" stop-color="#5b6b70"/><stop offset="1" stop-color="#64767b"/><stop offset="1" stop-color="#6a7c82"/><stop offset="1" stop-color="#6b7e84"/></linearGradient></defs><g id="Layer_2" data-name="Layer 2"><g id="PencilCup"><g id="Pencil"><path class="cls-1" d="M28.5,24.94c0-3.38-28-3.38-28,0"/><g id="Brush"><path class="cls-2" d="M12.78,56.82,5.65,11.11a1.7,1.7,0,0,1,2.48-.59l7.64,46.17C14.81,57.84,13.81,57.73,12.78,56.82Z"/><path class="cls-3" d="M5.7,12.1A3.09,3.09,0,0,0,9.6,9.92c.86-3-3.37-7.85-4.41-8.8C5.19,1.12,1.66,11.29,5.7,12.1Z"/><polygon class="cls-4" points="4.05 5.55 4.47 7.16 5.65 5.47 6.46 7.06 8.17 4.98 5.19 1.12 4.05 5.55"/></g><g id="Pencil-2" data-name="Pencil"><path class="cls-5" d="M20.82,10.88c-1.2-.81-2.27-.92-3.16-.12l-3.58,35c1.22.81,2.27.86,3.16.12Z"/><path class="cls-6" d="M20.82,10.88l-1-6.8-2.14,6.68C18.07,12.21,20.65,12,20.82,10.88Z"/></g><path class="cls-7" d="M28.5,24.94v49c0,5.31-28,5.31-28,0v-49C.5,30.75,28.5,30.75,28.5,24.94Z"/><path class="cls-1" d="M.5,24.94v49c0,5.31,28,5.31,28,0v-49C28.5,30.75.5,30.75.5,24.94Z"/></g></g></g></svg>