<svg xmlns="http://www.w3.org/2000/svg" viewBox="0 0 71.99 34.5"><defs><style>.cls-1{fill:#fff;}.cls-1,.cls-4{stroke:#000;stroke-miterlimit:10;}.cls-2,.cls-4{fill:none;}.cls-3{fill:#793c00;}</style></defs><g id="Layer_2" data-name="Layer 2"><g id="Picross"><polygon class="cls-1" points="71.25 34 0.75 34 14.57 0.5 22.17 0.5 57.42 0.5 71.25 34"/><polygon class="cls-2" points="30.18 21.52 30.36 20.47 28.89 20.47 28.69 21.52 30.18 21.52"/><polygon class="cls-2" points="44.25 20.47 41.73 20.47 41.69 21.57 44.25 21.59 44.25 20.47"/><polygon class="cls-2" points="38.05 20.47 36.74 20.47 36.7 21.55 37.99 21.56 38.05 20.47"/><polygon class="cls-2" points="40.73 20.47 39.05 20.47 38.99 21.56 40.69 21.57 40.73 20.47"/><polygon class="cls-2" points="41.9 15.66 44.25 15.66 44.25 14.49 41.95 14.49 41.9 15.66"/><polygon class="cls-2" points="35.74 20.47 34.23 20.47 34.15 21.54 35.7 21.55 35.74 20.47"/><polygon class="cls-2" points="47.12 20.47 45.25 20.47 45.25 21.59 47.13 21.6 47.12 20.47"/><polygon class="cls-2" points="48.06 14.49 48.07 15.64 50.24 15.63 50.12 14.49 48.06 14.49"/><polygon class="cls-2" points="45.25 15.65 47.08 15.64 47.06 14.49 45.25 14.49 45.25 15.65"/><polygon class="cls-2" points="50.77 20.47 48.12 20.47 48.13 21.6 50.89 21.61 50.77 20.47"/><polygon class="cls-2" points="48.08 16.64 48.09 17.64 50.46 17.65 50.35 16.63 48.08 16.64"/><polygon class="cls-2" points="48.1 18.64 48.11 19.47 50.66 19.47 50.57 18.65 48.1 18.64"/><polygon class="cls-2" points="33.23 20.47 31.37 20.47 31.19 21.53 33.15 21.54 33.23 20.47"/><polygon class="cls-2" points="47.1 18.64 45.25 18.63 45.25 19.47 47.11 19.47 47.1 18.64"/><polygon class="cls-2" points="45.25 16.65 45.25 17.63 47.09 17.64 47.08 16.64 45.25 16.65"/><polygon class="cls-2" points="41.83 17.61 44.25 17.62 44.25 16.66 41.87 16.67 41.83 17.61"/><polygon class="cls-2" points="44.25 18.62 41.8 18.61 41.77 19.47 44.25 19.47 44.25 18.62"/><polygon class="cls-2" points="40.8 18.61 39.16 18.6 39.11 19.47 40.77 19.47 40.8 18.61"/><polygon class="cls-2" points="30.53 19.47 30.68 18.56 29.25 18.55 29.07 19.47 30.53 19.47"/><polygon class="cls-2" points="39.23 17.6 40.83 17.61 40.87 16.67 39.28 16.68 39.23 17.6"/><polygon class="cls-2" points="29.44 17.55 30.85 17.56 30.99 16.71 29.59 16.71 29.44 17.55"/><polygon class="cls-2" points="31.86 17.56 33.44 17.57 33.5 16.7 32.01 16.7 31.86 17.56"/><polygon class="cls-2" points="36.84 17.59 38.22 17.59 38.28 16.68 36.88 16.69 36.84 17.59"/><polygon class="cls-2" points="34.44 17.57 35.84 17.58 35.88 16.69 34.51 16.7 34.44 17.57"/><polygon class="cls-2" points="51.58 18.66 51.66 19.47 54 19.47 53.82 18.67 51.58 18.66"/><polygon class="cls-2" points="47.14 22.6 45.25 22.59 45.25 23.86 47.15 23.85 47.14 22.6"/><polygon class="cls-2" points="44.25 22.59 41.66 22.57 41.61 23.88 44.25 23.86 44.25 22.59"/><polygon class="cls-2" points="51 22.61 48.14 22.6 48.15 23.85 51.13 23.83 51 22.61"/><polygon class="cls-2" points="37.93 22.56 36.66 22.55 36.62 23.9 37.85 23.89 37.93 22.56"/><polygon class="cls-2" points="35.66 22.55 34.08 22.54 33.98 23.91 35.61 23.9 35.66 22.55"/><polygon class="cls-2" points="40.66 22.57 38.93 22.56 38.85 23.89 40.61 23.88 40.66 22.57"/><polygon class="cls-2" points="51.12 14.49 51.25 15.63 53.14 15.62 52.89 14.49 51.12 14.49"/><polygon class="cls-2" points="51.35 16.63 51.47 17.66 53.6 17.67 53.37 16.62 51.35 16.63"/><polygon class="cls-2" points="38.16 18.59 36.81 18.59 36.78 19.47 38.11 19.47 38.16 18.59"/><polygon class="cls-2" points="54.7 22.63 52.01 22.62 52.14 23.83 54.97 23.82 54.7 22.63"/><polygon class="cls-2" points="39.34 15.68 40.9 15.67 40.94 14.49 39.41 14.49 39.34 15.68"/><polygon class="cls-2" points="51.77 20.47 51.9 21.62 54.48 21.63 54.22 20.47 51.77 20.47"/><polygon class="cls-2" points="29.78 15.71 31.16 15.71 31.36 14.49 30.01 14.49 29.78 15.71"/><polygon class="cls-2" points="33.08 22.54 31.03 22.53 30.79 23.92 32.98 23.91 33.08 22.54"/><polygon class="cls-2" points="36.91 15.69 38.34 15.68 38.41 14.49 36.96 14.49 36.91 15.69"/><polygon class="cls-2" points="27.27 15.72 28.76 15.72 28.99 14.49 27.53 14.49 27.27 15.72"/><polygon class="cls-2" points="34.58 15.7 35.91 15.69 35.96 14.49 34.67 14.49 34.58 15.7"/><polygon class="cls-2" points="32.17 15.7 33.58 15.7 33.66 14.49 32.38 14.49 32.17 15.7"/><polygon class="cls-2" points="27.22 23.94 27.48 22.51 25.88 22.51 25.58 23.94 27.22 23.94"/><polygon class="cls-2" points="28.42 17.55 28.57 16.72 27.07 16.73 26.9 17.54 28.42 17.55"/><polygon class="cls-2" points="30.01 22.52 28.5 22.52 28.24 23.93 29.78 23.93 30.01 22.52"/><polygon class="cls-2" points="28.06 19.47 28.23 18.55 26.7 18.54 26.5 19.47 28.06 19.47"/><polygon class="cls-2" points="27.67 21.52 27.87 20.47 26.3 20.47 26.09 21.51 27.67 21.52"/><polygon class="cls-2" points="36.06 11.49 36.09 10.69 34.94 10.68 34.88 11.49 36.06 11.49"/><polygon class="cls-2" points="19.94 27.09 19.54 28.69 20.67 28.69 21.05 27.09 19.94 27.09"/><polygon class="cls-2" points="16.52 28.69 18.51 28.69 18.91 27.09 16.96 27.09 16.52 28.69"/><polygon class="cls-2" points="20.15 30.83 20.43 29.69 19.29 29.69 19 30.83 20.15 30.83"/><polygon class="cls-2" points="25.92 30.83 26.14 29.69 24.4 29.69 24.17 30.83 25.92 30.83"/><polygon class="cls-2" points="24.94 27.09 24.61 28.69 26.32 28.69 26.62 27.09 24.94 27.09"/><polygon class="cls-2" points="20.11 15.75 21.76 15.75 22.07 14.49 20.47 14.49 20.11 15.75"/><polygon class="cls-2" points="24.09 14.49 23.1 14.49 22.79 15.74 23.79 15.74 24.09 14.49"/><polygon class="cls-2" points="19.08 19.47 20.82 19.47 21.06 18.51 19.35 18.5 19.08 19.47"/><polygon class="cls-2" points="32.48 30.83 32.56 29.69 29.82 29.69 29.63 30.83 32.48 30.83"/><polygon class="cls-2" points="17.83 23.98 19.69 23.97 20.07 22.48 18.25 22.48 17.83 23.98"/><polygon class="cls-2" points="22.16 22.49 21.1 22.49 20.73 23.96 21.8 23.96 22.16 22.49"/><polygon class="cls-2" points="23.11 18.52 22.09 18.52 21.85 19.47 22.89 19.47 23.11 18.52"/><polygon class="cls-2" points="30.26 27.09 29.99 28.69 32.63 28.69 32.75 27.09 30.26 27.09"/><polygon class="cls-2" points="56.72 27.09 57.08 28.69 61.4 28.69 60.85 27.09 56.72 27.09"/><polygon class="cls-2" points="62.13 30.83 61.74 29.69 57.3 29.69 57.55 30.83 62.13 30.83"/><polygon class="cls-2" points="69.4 30.83 68.93 29.69 67.16 29.69 67.63 30.83 69.4 30.83"/><polygon class="cls-2" points="62.45 28.69 65.67 28.69 65.02 27.09 61.91 27.09 62.45 28.69"/><polygon class="cls-2" points="36.5 27.09 36.44 28.69 37.56 28.69 37.66 27.09 36.5 27.09"/><polygon class="cls-2" points="48.18 27.09 48.2 28.69 51.66 28.69 51.49 27.09 48.18 27.09"/><polygon class="cls-2" points="37.44 30.83 37.5 29.69 36.4 29.69 36.36 30.83 37.44 30.83"/><polygon class="cls-2" points="51.9 30.83 51.77 29.69 48.21 29.69 48.22 30.83 51.9 30.83"/><polygon class="cls-2" points="41.49 27.09 41.44 28.69 44.25 28.69 44.25 27.09 41.49 27.09"/><polygon class="cls-2" points="31.87 11.49 32.01 10.66 30.73 10.64 30.58 11.49 31.87 11.49"/><polygon class="cls-2" points="59.05 12.49 56.9 12.49 57.24 13.49 59.46 13.49 59.05 12.49"/><polygon class="cls-2" points="54.63 17.67 57.62 17.68 57.25 16.6 54.39 16.62 54.63 17.67"/><polygon class="cls-2" points="60.73 16.59 58.31 16.6 58.68 17.69 61.18 17.7 60.73 16.59"/><polygon class="cls-2" points="50.51 8.85 50.61 9.82 51.85 9.83 51.64 8.85 50.51 8.85"/><polygon class="cls-2" points="25.02 10.6 24.08 10.59 23.86 11.49 24.81 11.49 25.02 10.6"/><polygon class="cls-2" points="35.81 18.58 34.37 18.57 34.3 19.47 35.77 19.47 35.81 18.58"/><polygon class="cls-2" points="52.23 11.49 52.08 10.83 50.72 10.82 50.8 11.49 52.23 11.49"/><polygon class="cls-2" points="64.08 24.78 61.12 24.79 61.56 26.09 64.61 26.09 64.08 24.78"/><polygon class="cls-2" points="55.51 21.63 58.98 21.65 58.58 20.47 55.25 20.47 55.51 21.63"/><polygon class="cls-2" points="62.31 20.47 59.64 20.47 60.04 21.65 62.8 21.66 62.31 20.47"/><polygon class="cls-2" points="56.5 26.09 60.51 26.09 60.06 24.8 56.21 24.81 56.5 26.09"/><polygon class="cls-2" points="53.7 13.49 56.19 13.49 55.84 12.49 53.47 12.49 53.7 13.49"/><polygon class="cls-2" points="45.25 8.85 45.25 9.77 47.02 9.79 47.01 8.85 45.25 8.85"/><polygon class="cls-2" points="26.47 8.85 26.29 9.61 27.51 9.62 27.67 8.85 26.47 8.85"/><polygon class="cls-2" points="21.3 11.49 22.82 11.49 23.05 10.58 21.56 10.56 21.3 11.49"/><polygon class="cls-2" points="31.07 8.85 30.92 9.65 32.17 9.66 32.31 8.85 31.07 8.85"/><polygon class="cls-2" points="27.12 11.49 27.3 10.62 26.05 10.6 25.84 11.49 27.12 11.49"/><polygon class="cls-2" points="31.54 19.47 33.3 19.47 33.37 18.57 31.69 18.56 31.54 19.47"/><polygon class="cls-2" points="50.9 12.49 51.01 13.49 52.67 13.49 52.45 12.49 50.9 12.49"/><polygon class="cls-2" points="39.75 8.85 39.69 9.72 41.11 9.73 41.15 8.85 39.75 8.85"/><polygon class="cls-2" points="47.04 11.49 47.03 10.79 45.25 10.77 45.25 11.49 47.04 11.49"/><polygon class="cls-2" points="41.05 11.49 41.08 10.73 39.63 10.72 39.59 11.49 41.05 11.49"/><polygon class="cls-2" points="35.08 8.85 35.02 9.68 36.13 9.69 36.16 8.85 35.08 8.85"/><polygon class="cls-2" points="44.25 30.83 44.25 29.69 41.4 29.69 41.36 30.83 44.25 30.83"/><polygon class="cls-2" points="28.05 7 26.92 7 26.71 7.85 27.87 7.85 28.05 7"/><polygon class="cls-2" points="29.91 9.64 30.06 8.85 28.69 8.85 28.53 9.63 29.91 9.64"/><polygon class="cls-2" points="34.02 9.67 34.08 8.85 33.33 8.85 33.19 9.67 34.02 9.67"/><polygon class="cls-2" points="32.62 7 31.42 7 31.26 7.85 32.48 7.85 32.62 7"/><polygon class="cls-2" points="36.23 7 35.21 7 35.15 7.85 36.2 7.85 36.23 7"/><polygon class="cls-2" points="38.69 9.71 38.74 8.85 37.16 8.85 37.13 9.7 38.69 9.71"/><polygon class="cls-2" points="23.49 8.85 22.03 8.85 21.84 9.57 23.3 9.58 23.49 8.85"/><polygon class="cls-2" points="25.26 9.6 25.44 8.85 24.52 8.85 24.33 9.59 25.26 9.6"/><polygon class="cls-2" points="22.57 12.49 21.02 12.49 20.74 13.49 22.32 13.49 22.57 12.49"/><polygon class="cls-2" points="18.91 10.54 18.59 11.49 20.26 11.49 20.52 10.56 18.91 10.54"/><polygon class="cls-2" points="41.21 7 39.86 7 39.81 7.85 41.18 7.85 41.21 7"/><polygon class="cls-2" points="23.95 7 22.55 7 22.31 7.85 23.74 7.85 23.95 7"/><polygon class="cls-2" points="56.81 7 55.02 7 55.31 7.85 57.16 7.85 56.81 7"/><polygon class="cls-2" points="60.76 9.91 60.33 8.85 58.64 8.85 59.07 9.89 60.76 9.91"/><polygon class="cls-2" points="56.56 11.49 58.64 11.49 58.4 10.89 56.34 10.87 56.56 11.49"/><polygon class="cls-2" points="55.65 8.85 56 9.87 57.99 9.88 57.56 8.85 55.65 8.85"/><polygon class="cls-2" points="57.97 15.6 60.32 15.59 59.87 14.49 57.59 14.49 57.97 15.6"/><polygon class="cls-2" points="62.24 13.49 61.83 12.49 60.13 12.49 60.54 13.49 62.24 13.49"/><polygon class="cls-2" points="46.99 7 45.25 7 45.25 7.85 47 7.85 46.99 7"/><polygon class="cls-2" points="44.25 9.76 44.25 8.85 42.15 8.85 42.11 9.74 44.25 9.76"/><polygon class="cls-2" points="49.6 9.81 49.5 8.85 48.01 8.85 48.02 9.8 49.6 9.81"/><polygon class="cls-2" points="51.23 7 50.3 7 50.4 7.85 51.41 7.85 51.23 7"/><polygon class="cls-2" points="17.57 14.49 17.14 15.77 19.08 15.76 19.43 14.49 17.57 14.49"/><polygon class="cls-2" points="54.94 9.86 54.59 8.85 52.66 8.85 52.88 9.84 54.94 9.86"/><polygon class="cls-2" points="41.27 33.5 44.25 33.5 44.25 31.83 41.33 31.83 41.27 33.5"/><polygon class="cls-2" points="45.25 29.69 45.25 30.83 47.22 30.83 47.21 29.69 45.25 29.69"/><polygon class="cls-2" points="63.99 17.71 63.52 16.58 61.81 16.59 62.27 17.71 63.99 17.71"/><polygon class="cls-2" points="38.51 29.69 38.44 30.83 40.36 30.83 40.4 29.69 38.51 29.69"/><polygon class="cls-2" points="33.56 29.69 33.48 30.83 35.36 30.83 35.4 29.69 33.56 29.69"/><polygon class="cls-2" points="36.27 33.5 37.28 33.5 37.38 31.83 36.33 31.83 36.27 33.5"/><polygon class="cls-2" points="48.24 33.5 52.19 33.5 52.01 31.83 48.23 31.83 48.24 33.5"/><polygon class="cls-2" points="48.05 13.49 50.01 13.49 49.9 12.49 48.05 12.49 48.05 13.49"/><polygon class="cls-2" points="52.78 29.69 52.91 30.83 56.53 30.83 56.28 29.69 52.78 29.69"/><polygon class="cls-2" points="58.15 33.5 63.05 33.5 62.48 31.83 57.78 31.83 58.15 33.5"/><polygon class="cls-2" points="62.8 29.69 63.19 30.83 66.55 30.83 66.08 29.69 62.8 29.69"/><polygon class="cls-2" points="14.88 22.46 14.36 23.99 16.79 23.98 17.21 22.47 14.88 22.46"/><polygon class="cls-2" points="13.32 27.09 12.78 28.69 15.48 28.69 15.93 27.09 13.32 27.09"/><polygon class="cls-2" points="19.44 24.97 17.55 24.98 17.24 26.09 19.16 26.09 19.44 24.97"/><polygon class="cls-2" points="21.5 16.75 19.84 16.75 19.63 17.51 21.31 17.51 21.5 16.75"/><polygon class="cls-2" points="16.22 18.49 15.89 19.47 18.04 19.47 18.31 18.5 16.22 18.49"/><polygon class="cls-2" points="20.57 20.47 18.8 20.47 18.52 21.48 20.32 21.48 20.57 20.47"/><polygon class="cls-2" points="23.62 33.5 25.42 33.5 25.73 31.83 23.96 31.83 23.62 33.5"/><polygon class="cls-2" points="29.18 33.5 32.28 33.5 32.4 31.83 29.46 31.83 29.18 33.5"/><polygon class="cls-2" points="27.15 29.69 26.94 30.83 28.62 30.83 28.81 29.69 27.15 29.69"/><polygon class="cls-2" points="16.24 29.69 15.92 30.83 17.97 30.83 18.26 29.69 16.24 29.69"/><polygon class="cls-2" points="21.45 29.69 21.18 30.83 23.15 30.83 23.38 29.69 21.45 29.69"/><polygon class="cls-2" points="18.33 33.5 19.51 33.5 19.91 31.83 18.75 31.83 18.33 33.5"/><polygon class="cls-2" points="29.25 27.09 27.64 27.09 27.34 28.69 28.98 28.69 29.25 27.09"/><polygon class="cls-2" points="25.48 19.47 25.68 18.53 24.14 18.53 23.91 19.47 25.48 19.47"/><polygon class="cls-2" points="29.61 24.93 28.05 24.93 27.83 26.09 29.41 26.09 29.61 24.93"/><polygon class="cls-2" points="24.12 26.09 24.36 24.95 22.59 24.96 22.32 26.09 24.12 26.09"/><polygon class="cls-2" points="24.56 23.95 24.86 22.5 23.19 22.5 22.84 23.96 24.56 23.95"/><polygon class="cls-2" points="25.07 21.5 25.28 20.47 23.67 20.47 23.43 21.5 25.07 21.5"/><polygon class="cls-2" points="32.91 24.91 30.62 24.92 30.43 26.09 32.82 26.09 32.91 24.91"/><polygon class="cls-2" points="27.03 24.94 25.38 24.95 25.14 26.09 26.81 26.09 27.03 24.94"/><polygon class="cls-2" points="47.16 24.85 45.25 24.86 45.25 26.09 47.17 26.09 47.16 24.85"/><polygon class="cls-2" points="44.25 24.86 41.57 24.88 41.53 26.09 44.25 26.09 44.25 24.86"/><polygon class="cls-2" points="40.57 24.88 38.79 24.89 38.72 26.09 40.53 26.09 40.57 24.88"/><polygon class="cls-2" points="35.58 24.9 33.91 24.91 33.82 26.09 35.53 26.09 35.58 24.9"/><polygon class="cls-2" points="59.29 19.47 61.91 19.47 61.59 18.7 59.03 18.69 59.29 19.47"/><polygon class="cls-2" points="41.98 13.49 44.25 13.49 44.25 12.49 42.02 12.49 41.98 13.49"/><polygon class="cls-2" points="36.99 13.49 38.47 13.49 38.53 12.49 37.03 12.49 36.99 13.49"/><polygon class="cls-2" points="39.47 13.49 40.98 13.49 41.02 12.49 39.53 12.49 39.47 13.49"/><polygon class="cls-2" points="51.24 24.83 48.16 24.85 48.17 26.09 51.38 26.09 51.24 24.83"/><polygon class="cls-2" points="34.74 13.49 35.99 13.49 36.03 12.49 34.81 12.49 34.74 13.49"/><polygon class="cls-2" points="45.25 13.49 47.05 13.49 47.05 12.49 45.25 12.49 45.25 13.49"/><polygon class="cls-2" points="25.35 13.49 26.71 13.49 26.92 12.49 25.59 12.49 25.35 13.49"/><polygon class="cls-2" points="32.55 13.49 33.74 13.49 33.81 12.49 32.71 12.49 32.55 13.49"/><polygon class="cls-2" points="25.88 17.54 26.05 16.73 24.57 16.73 24.38 17.53 25.88 17.54"/><polygon class="cls-2" points="26.25 15.73 26.51 14.49 25.11 14.49 24.81 15.73 26.25 15.73"/><polygon class="cls-2" points="27.73 13.49 29.18 13.49 29.37 12.49 27.94 12.49 27.73 13.49"/><polygon class="cls-2" points="30.2 13.49 31.53 13.49 31.7 12.49 30.39 12.49 30.2 13.49"/><polygon class="cls-2" points="37.79 24.89 36.58 24.9 36.53 26.09 37.72 26.09 37.79 24.89"/><polygon class="cls-2" points="23.36 17.52 23.54 16.74 22.54 16.74 22.34 17.52 23.36 17.52"/><polygon class="cls-2" points="35.5 27.09 33.75 27.09 33.63 28.69 35.44 28.69 35.5 27.09"/><polygon class="cls-2" points="23.92 27.09 22.08 27.09 21.7 28.69 23.59 28.69 23.92 27.09"/><polygon class="cls-2" points="22.4 21.49 22.64 20.47 21.6 20.47 21.35 21.49 22.4 21.49"/><polygon class="cls-2" points="21.29 26.09 21.56 24.96 20.47 24.97 20.19 26.09 21.29 26.09"/><polygon class="cls-2" points="40.49 27.09 38.66 27.09 38.56 28.69 40.44 28.69 40.49 27.09"/><polygon class="cls-2" points="65.62 21.68 65.12 20.47 63.4 20.47 63.88 21.67 65.62 21.68"/><polygon class="cls-2" points="60.77 23.79 63.67 23.78 63.21 22.67 60.38 22.65 60.77 23.79"/><polygon class="cls-2" points="47.18 27.09 45.25 27.09 45.25 28.69 47.2 28.69 47.18 27.09"/><polygon class="cls-2" points="67.44 26.09 66.9 24.77 65.15 24.77 65.69 26.09 67.44 26.09"/><polygon class="cls-2" points="55.19 24.82 52.25 24.83 52.39 26.09 55.48 26.09 55.19 24.82"/><polygon class="cls-2" points="55.7 27.09 52.5 27.09 52.67 28.69 56.05 28.69 55.7 27.09"/><polygon class="cls-2" points="53.1 10.84 53.25 11.49 55.5 11.49 55.28 10.86 53.1 10.84"/><polygon class="cls-2" points="42.05 11.49 44.25 11.49 44.25 10.76 42.08 10.74 42.05 11.49"/><polygon class="cls-2" points="48.03 11.49 49.79 11.49 49.71 10.81 48.03 10.79 48.03 11.49"/><polygon class="cls-2" points="53.92 14.49 54.17 15.62 56.91 15.61 56.53 14.49 53.92 14.49"/><polygon class="cls-2" points="55.73 22.63 55.99 23.81 59.72 23.8 59.33 22.65 55.73 22.63"/><polygon class="cls-2" points="54.85 18.67 55.03 19.47 58.24 19.47 57.97 18.69 54.85 18.67"/><polygon class="cls-2" points="28.14 11.49 29.56 11.49 29.72 10.64 28.32 10.62 28.14 11.49"/><polygon class="cls-2" points="24.32 13.49 24.57 12.49 23.6 12.49 23.35 13.49 24.32 13.49"/><polygon class="cls-2" points="37.07 11.49 38.59 11.49 38.63 10.71 37.09 10.7 37.07 11.49"/><polygon class="cls-2" points="32.88 11.49 33.88 11.49 33.94 10.67 33.02 10.66 32.88 11.49"/><polygon class="cls-2" points="26.29 9.61 27.51 9.62 27.67 8.85 26.47 8.85 26.29 9.61"/><polygon class="cls-2" points="27.12 11.49 27.3 10.62 26.05 10.6 25.84 11.49 27.12 11.49"/><polygon class="cls-2" points="28.57 16.72 27.07 16.73 26.9 17.54 28.42 17.55 28.57 16.72"/><polygon class="cls-2" points="24.38 17.53 25.88 17.54 26.05 16.73 24.57 16.73 24.38 17.53"/><polygon class="cls-2" points="25.35 13.49 26.71 13.49 26.92 12.49 25.59 12.49 25.35 13.49"/><polygon class="cls-2" points="17.21 22.47 14.88 22.46 14.36 23.99 16.79 23.98 17.21 22.47"/><polygon class="cls-2" points="21.85 19.47 22.89 19.47 23.11 18.52 22.09 18.52 21.85 19.47"/><polygon class="cls-2" points="24.09 14.49 23.1 14.49 22.79 15.74 23.79 15.74 24.09 14.49"/><polygon class="cls-2" points="24.33 9.59 25.26 9.6 25.44 8.85 24.52 8.85 24.33 9.59"/><polygon class="cls-2" points="26.51 14.49 25.11 14.49 24.81 15.73 26.25 15.73 26.51 14.49"/><polygon class="cls-2" points="24.81 11.49 25.02 10.6 24.08 10.59 23.86 11.49 24.81 11.49"/><polygon class="cls-2" points="23.35 13.49 24.32 13.49 24.57 12.49 23.6 12.49 23.35 13.49"/><polygon class="cls-2" points="23.54 16.74 22.54 16.74 22.34 17.52 23.36 17.52 23.54 16.74"/><polygon class="cls-2" points="20.07 22.48 18.25 22.48 17.83 23.98 19.69 23.97 20.07 22.48"/><polygon class="cls-2" points="19.43 14.49 17.57 14.49 17.14 15.77 19.08 15.76 19.43 14.49"/><polygon class="cls-2" points="20.57 20.47 18.8 20.47 18.52 21.48 20.32 21.48 20.57 20.47"/><polygon class="cls-2" points="18.31 18.5 16.22 18.49 15.89 19.47 18.04 19.47 18.31 18.5"/><polygon class="cls-2" points="19.44 24.97 17.55 24.98 17.24 26.09 19.16 26.09 19.44 24.97"/><polygon class="cls-2" points="18.91 27.09 16.96 27.09 16.52 28.69 18.51 28.69 18.91 27.09"/><polygon class="cls-2" points="30.06 8.85 28.69 8.85 28.53 9.63 29.91 9.64 30.06 8.85"/><polygon class="cls-2" points="29.72 10.64 28.32 10.62 28.14 11.49 29.56 11.49 29.72 10.64"/><polygon class="cls-2" points="27.73 13.49 29.18 13.49 29.37 12.49 27.94 12.49 27.73 13.49"/><polygon class="cls-2" points="20.52 10.56 18.91 10.54 18.89 10.6 18.59 11.49 20.26 11.49 20.52 10.56"/><polygon class="cls-2" points="27.27 15.72 28.76 15.72 28.99 14.49 27.53 14.49 27.27 15.72"/><polygon class="cls-2" points="22.07 14.49 20.47 14.49 20.11 15.75 21.76 15.75 22.07 14.49"/><polygon class="cls-2" points="28.23 18.55 26.7 18.54 26.5 19.47 28.06 19.47 28.23 18.55"/><polygon class="cls-2" points="31.36 14.49 30.01 14.49 29.78 15.71 31.16 15.71 31.36 14.49"/><polygon class="cls-2" points="30.99 16.71 29.59 16.71 29.44 17.55 30.85 17.56 30.99 16.71"/><polygon class="cls-2" points="30.36 20.47 28.89 20.47 28.69 21.52 30.18 21.52 30.36 20.47"/><polygon class="cls-2" points="30.68 18.56 29.25 18.55 29.07 19.47 30.53 19.47 30.68 18.56"/><polygon class="cls-2" points="29.61 24.93 28.05 24.93 27.83 26.09 29.41 26.09 29.61 24.93"/><polygon class="cls-2" points="30.01 22.52 28.5 22.52 28.24 23.93 29.78 23.93 30.01 22.52"/><polygon class="cls-2" points="21.84 9.57 23.3 9.58 23.49 8.85 22.03 8.85 21.84 9.57"/><polygon class="cls-2" points="33.66 14.49 32.38 14.49 32.17 15.7 33.58 15.7 33.66 14.49"/><polygon class="cls-2" points="27.87 20.47 26.3 20.47 26.09 21.51 27.67 21.52 27.87 20.47"/><polygon class="cls-2" points="31.7 12.49 30.39 12.49 30.2 13.49 31.53 13.49 31.7 12.49"/><polygon class="cls-2" points="32.01 10.66 30.73 10.64 30.58 11.49 31.87 11.49 32.01 10.66"/><polygon class="cls-2" points="32.31 8.85 31.07 8.85 30.92 9.65 32.17 9.66 32.31 8.85"/><polygon class="cls-2" points="33.81 12.49 32.71 12.49 32.55 13.49 33.74 13.49 33.81 12.49"/><polygon class="cls-2" points="19.08 19.47 20.82 19.47 21.06 18.51 19.35 18.5 19.08 19.47"/><polygon class="cls-2" points="19.63 17.51 21.31 17.51 21.5 16.75 19.84 16.75 19.63 17.51"/><polygon class="cls-2" points="22.16 22.49 21.1 22.49 20.73 23.96 21.8 23.96 22.16 22.49"/><polygon class="cls-2" points="21.56 24.96 20.47 24.97 20.19 26.09 21.29 26.09 21.56 24.96"/><polygon class="cls-2" points="27.48 22.51 25.88 22.51 25.58 23.94 27.22 23.94 27.48 22.51"/><polygon class="cls-2" points="22.82 11.49 23.05 10.58 21.56 10.56 21.3 11.49 22.82 11.49"/><polygon class="cls-2" points="20.74 13.49 22.32 13.49 22.57 12.49 21.02 12.49 20.74 13.49"/><polygon class="cls-2" points="22.64 20.47 21.6 20.47 21.35 21.49 22.4 21.49 22.64 20.47"/><polygon class="cls-2" points="25.28 20.47 23.67 20.47 23.43 21.5 25.07 21.5 25.28 20.47"/><polygon class="cls-2" points="25.68 18.53 24.14 18.53 23.91 19.47 25.48 19.47 25.68 18.53"/><polygon class="cls-2" points="24.86 22.5 23.19 22.5 22.84 23.96 24.56 23.95 24.86 22.5"/><polygon class="cls-2" points="24.36 24.95 22.59 24.96 22.32 26.09 24.12 26.09 24.36 24.95"/><polygon class="cls-2" points="58.24 19.47 57.97 18.69 54.85 18.67 55.03 19.47 58.24 19.47"/><polygon class="cls-2" points="54.48 21.63 54.22 20.47 51.77 20.47 51.9 21.62 54.48 21.63"/><polygon class="cls-2" points="53.92 14.49 54.17 15.62 56.91 15.61 56.53 14.49 53.92 14.49"/><polygon class="cls-2" points="53.14 15.62 52.89 14.49 51.12 14.49 51.25 15.63 53.14 15.62"/><polygon class="cls-2" points="53.6 17.67 53.37 16.62 51.35 16.63 51.47 17.66 53.6 17.67"/><polygon class="cls-2" points="53.47 12.49 53.7 13.49 56.19 13.49 55.84 12.49 53.47 12.49"/><polygon class="cls-2" points="53.1 10.84 53.25 11.49 55.5 11.49 55.28 10.86 53.1 10.84"/><polygon class="cls-2" points="54 19.47 53.82 18.67 51.58 18.66 51.66 19.47 54 19.47"/><polygon class="cls-2" points="54.97 23.82 54.7 22.63 52.01 22.62 52.14 23.83 54.97 23.82"/><polygon class="cls-2" points="60.51 26.09 60.06 24.8 56.21 24.81 56.5 26.09 60.51 26.09"/><polygon class="cls-2" points="59.72 23.8 59.33 22.65 55.73 22.63 55.99 23.81 59.72 23.8"/><polygon class="cls-2" points="33.94 10.67 33.02 10.66 32.88 11.49 33.88 11.49 33.94 10.67"/><polygon class="cls-2" points="58.98 21.65 58.58 20.47 55.25 20.47 55.51 21.63 58.98 21.65"/><polygon class="cls-2" points="59.05 12.49 56.9 12.49 57.24 13.49 59.46 13.49 59.05 12.49"/><polygon class="cls-2" points="62.45 28.69 65.67 28.69 65.02 27.09 61.91 27.09 62.45 28.69"/><polygon class="cls-2" points="60.77 23.79 63.67 23.78 63.21 22.67 60.38 22.65 60.77 23.79"/><polygon class="cls-2" points="65.62 21.68 65.12 20.47 63.4 20.47 63.88 21.67 65.62 21.68"/><polygon class="cls-2" points="61.12 24.79 61.56 26.09 64.61 26.09 64.08 24.78 61.12 24.79"/><polygon class="cls-2" points="67.44 26.09 66.9 24.77 65.15 24.77 65.69 26.09 67.44 26.09"/><polygon class="cls-2" points="50.61 9.82 51.85 9.83 51.64 8.85 50.51 8.85 50.61 9.82"/><polygon class="cls-2" points="54.63 17.67 57.62 17.68 57.25 16.6 54.39 16.62 54.63 17.67"/><polygon class="cls-2" points="59.64 20.47 60.04 21.65 62.8 21.66 62.31 20.47 59.64 20.47"/><polygon class="cls-2" points="52.88 9.84 54.94 9.86 54.59 8.85 52.66 8.85 52.88 9.84"/><polygon class="cls-2" points="52.67 13.49 52.45 12.49 50.9 12.49 51.01 13.49 52.67 13.49"/><polygon class="cls-2" points="52.23 11.49 52.08 10.83 50.72 10.82 50.8 11.49 52.23 11.49"/><polygon class="cls-2" points="56.56 11.49 58.64 11.49 58.4 10.89 56.34 10.87 56.56 11.49"/><polygon class="cls-2" points="45.25 18.63 45.25 19.47 47.11 19.47 47.1 18.64 45.25 18.63"/><polygon class="cls-2" points="45.25 8.85 45.25 9.77 47.02 9.79 47.01 8.85 45.25 8.85"/><polygon class="cls-2" points="45.25 12.49 45.25 13.49 47.05 13.49 47.05 12.49 45.25 12.49"/><polygon class="cls-2" points="45.25 14.49 45.25 15.65 47.08 15.64 47.06 14.49 45.25 14.49"/><polygon class="cls-2" points="45.25 16.65 45.25 17.63 47.09 17.64 47.08 16.64 45.25 16.65"/><polygon class="cls-2" points="47.18 27.09 45.25 27.09 45.25 28.69 47.2 28.69 47.18 27.09"/><polygon class="cls-2" points="45.25 10.77 45.25 11.49 47.04 11.49 47.03 10.79 45.25 10.77"/><polygon class="cls-2" points="47 7.85 46.99 7 45.25 7 45.25 7.85 47 7.85"/><polygon class="cls-2" points="38.63 10.71 37.09 10.7 37.07 11.49 38.59 11.49 38.63 10.71"/><polygon class="cls-2" points="38.74 8.85 37.16 8.85 37.13 9.7 38.69 9.71 38.74 8.85"/><polygon class="cls-2" points="38.53 12.49 37.03 12.49 36.99 13.49 38.47 13.49 38.53 12.49"/><polygon class="cls-2" points="38.8 7.85 38.85 7 37.23 7 37.2 7.85 38.8 7.85"/><polygon class="cls-2" points="45.25 22.59 45.25 23.86 47.15 23.85 47.14 22.6 45.25 22.59"/><polygon class="cls-2" points="60.76 9.91 60.33 8.85 58.64 8.85 59.07 9.89 60.76 9.91"/><polygon class="cls-2" points="57.97 15.6 60.32 15.59 59.87 14.49 57.59 14.49 57.97 15.6"/><polygon class="cls-2" points="45.25 20.47 45.25 21.59 47.13 21.6 47.12 20.47 45.25 20.47"/><polygon class="cls-2" points="58.31 16.6 58.68 17.69 61.18 17.7 60.73 16.59 58.31 16.6"/><polygon class="cls-2" points="55.65 8.85 56 9.87 57.99 9.88 57.56 8.85 55.65 8.85"/><polygon class="cls-2" points="62.24 13.49 61.83 12.49 60.13 12.49 60.54 13.49 62.24 13.49"/><polygon class="cls-2" points="34.15 7.85 34.21 7 33.63 7 33.49 7.85 34.15 7.85"/><polygon class="cls-2" points="45.25 26.09 47.17 26.09 47.16 24.85 45.25 24.86 45.25 26.09"/><polygon class="cls-2" points="63.99 17.71 63.52 16.58 61.81 16.59 62.27 17.71 63.99 17.71"/><polygon class="cls-2" points="57.16 7.85 56.81 7 55.02 7 55.31 7.85 57.16 7.85"/><polygon class="cls-2" points="54.25 7.85 53.96 7 52.25 7 52.44 7.85 54.25 7.85"/><polygon class="cls-2" points="51.41 7.85 51.23 7 50.3 7 50.4 7.85 51.41 7.85"/><polygon class="cls-2" points="59.29 19.47 61.91 19.47 61.59 18.7 59.03 18.69 59.29 19.47"/><polygon class="cls-2" points="41.44 28.69 44.25 28.69 44.25 27.09 41.49 27.09 41.44 28.69"/><polygon class="cls-2" points="41.53 26.09 44.25 26.09 44.25 24.86 41.57 24.88 41.53 26.09"/><polygon class="cls-2" points="41.61 23.88 44.25 23.86 44.25 22.59 41.66 22.57 41.61 23.88"/><polygon class="cls-2" points="41.36 30.83 44.25 30.83 44.25 29.69 41.4 29.69 41.36 30.83"/><polygon class="cls-2" points="41.27 33.5 44.25 33.5 44.25 31.83 41.33 31.83 41.27 33.5"/><polygon class="cls-2" points="39.81 7.85 41.18 7.85 41.21 7 39.86 7 39.81 7.85"/><polygon class="cls-2" points="39.69 9.72 41.11 9.73 41.15 8.85 39.75 8.85 39.69 9.72"/><polygon class="cls-2" points="41.98 13.49 44.25 13.49 44.25 12.49 42.02 12.49 41.98 13.49"/><polygon class="cls-2" points="41.9 15.66 44.25 15.66 44.25 14.49 41.95 14.49 41.9 15.66"/><polygon class="cls-2" points="41.69 21.57 44.25 21.59 44.25 20.47 41.73 20.47 41.69 21.57"/><polygon class="cls-2" points="41.83 17.61 44.25 17.62 44.25 16.66 41.87 16.67 41.83 17.61"/><polygon class="cls-2" points="41.77 19.47 44.25 19.47 44.25 18.62 41.8 18.61 41.77 19.47"/><polygon class="cls-2" points="39.34 15.68 40.9 15.67 40.94 14.49 39.41 14.49 39.34 15.68"/><polygon class="cls-2" points="38.44 30.83 40.36 30.83 40.4 29.69 38.51 29.69 38.44 30.83"/><polygon class="cls-2" points="36.78 19.47 38.11 19.47 38.16 18.59 36.81 18.59 36.78 19.47"/><polygon class="cls-2" points="38.72 26.09 40.53 26.09 40.57 24.88 38.79 24.89 38.72 26.09"/><polygon class="cls-2" points="38.56 28.69 40.44 28.69 40.49 27.09 38.66 27.09 38.56 28.69"/><polygon class="cls-2" points="36.84 17.59 38.22 17.59 38.28 16.68 36.88 16.69 36.84 17.59"/><polygon class="cls-2" points="36.91 15.69 38.34 15.68 38.41 14.49 36.96 14.49 36.91 15.69"/><polygon class="cls-2" points="39.23 17.6 40.83 17.61 40.87 16.67 39.28 16.68 39.23 17.6"/><polygon class="cls-2" points="42.05 11.49 44.25 11.49 44.25 10.76 42.08 10.74 42.05 11.49"/><polygon class="cls-2" points="39.47 13.49 40.98 13.49 41.02 12.49 39.53 12.49 39.47 13.49"/><polygon class="cls-2" points="39.59 11.49 41.05 11.49 41.08 10.73 39.63 10.72 39.59 11.49"/><polygon class="cls-2" points="38.99 21.56 40.69 21.57 40.73 20.47 39.05 20.47 38.99 21.56"/><polygon class="cls-2" points="34.08 8.85 33.33 8.85 33.19 9.67 34.02 9.67 34.08 8.85"/><polygon class="cls-2" points="38.85 23.89 40.61 23.88 40.66 22.57 38.93 22.56 38.85 23.89"/><polygon class="cls-2" points="55.7 27.09 52.5 27.09 52.67 28.69 56.05 28.69 55.7 27.09"/><polygon class="cls-2" points="55.19 24.82 52.25 24.83 52.39 26.09 55.48 26.09 55.19 24.82"/><polygon class="cls-2" points="60.85 27.09 56.72 27.09 57.08 28.69 61.4 28.69 60.85 27.09"/><polygon class="cls-2" points="52.78 29.69 52.91 30.83 56.53 30.83 56.28 29.69 52.78 29.69"/><polygon class="cls-2" points="48.23 31.83 48.24 33.5 52.19 33.5 52.01 31.83 48.23 31.83"/><polygon class="cls-2" points="51.77 29.69 48.21 29.69 48.22 30.83 51.9 30.83 51.77 29.69"/><polygon class="cls-2" points="57.78 31.83 58.15 33.5 63.05 33.5 62.48 31.83 57.78 31.83"/><polygon class="cls-2" points="68.93 29.69 67.16 29.69 67.63 30.83 69.4 30.83 68.93 29.69"/><polygon class="cls-2" points="61.74 29.69 57.3 29.69 57.55 30.83 62.13 30.83 61.74 29.69"/><polygon class="cls-2" points="62.8 29.69 63.19 30.83 66.55 30.83 66.08 29.69 62.8 29.69"/><polygon class="cls-2" points="51.49 27.09 48.18 27.09 48.2 28.69 51.66 28.69 51.49 27.09"/><polygon class="cls-2" points="51 22.61 48.14 22.6 48.15 23.85 51.13 23.83 51 22.61"/><polygon class="cls-2" points="49.5 8.85 48.01 8.85 48.02 9.8 49.6 9.81 49.5 8.85"/><polygon class="cls-2" points="49.71 10.81 48.03 10.79 48.03 11.49 49.79 11.49 49.71 10.81"/><polygon class="cls-2" points="49.9 12.49 48.05 12.49 48.05 13.49 50.01 13.49 49.9 12.49"/><polygon class="cls-2" points="49.3 7 47.99 7 48 7.85 49.39 7.85 49.3 7"/><polygon class="cls-2" points="42.21 7 42.18 7.85 44.25 7.85 44.25 7 42.21 7"/><polygon class="cls-2" points="45.25 29.69 45.25 30.83 47.22 30.83 47.21 29.69 45.25 29.69"/><polygon class="cls-2" points="51.24 24.83 48.16 24.85 48.17 26.09 51.38 26.09 51.24 24.83"/><polygon class="cls-2" points="50.12 14.49 48.06 14.49 48.07 15.64 50.24 15.63 50.12 14.49"/><polygon class="cls-2" points="50.77 20.47 48.12 20.47 48.13 21.6 50.89 21.61 50.77 20.47"/><polygon class="cls-2" points="42.11 9.74 44.25 9.76 44.25 8.85 42.15 8.85 42.11 9.74"/><polygon class="cls-2" points="50.35 16.63 48.08 16.64 48.09 17.64 50.46 17.65 50.35 16.63"/><polygon class="cls-2" points="50.57 18.65 48.1 18.64 48.11 19.47 50.66 19.47 50.57 18.65"/><polygon class="cls-2" points="39.11 19.47 40.77 19.47 40.8 18.61 39.16 18.6 39.11 19.47"/><polygon class="cls-2" points="12.05 30.83 14.88 30.83 15.2 29.69 12.44 29.69 12.05 30.83"/><polygon class="cls-2" points="19 30.83 20.15 30.83 20.43 29.69 19.29 29.69 19 30.83"/><polygon class="cls-2" points="19.54 28.69 20.67 28.69 21.05 27.09 19.94 27.09 19.54 28.69"/><polygon class="cls-2" points="18.33 33.5 19.51 33.5 19.91 31.83 18.75 31.83 18.33 33.5"/><polygon class="cls-2" points="15.92 30.83 17.97 30.83 18.26 29.69 16.24 29.69 15.92 30.83"/><polygon class="cls-2" points="13.32 27.09 12.92 28.27 12.78 28.69 15.48 28.69 15.93 27.09 13.32 27.09"/><polygon class="cls-2" points="27.64 27.09 27.34 28.69 28.98 28.69 29.25 27.09 27.64 27.09"/><polygon class="cls-2" points="24.61 28.69 26.32 28.69 26.62 27.09 24.94 27.09 24.61 28.69"/><polygon class="cls-2" points="22.08 27.09 21.7 28.69 23.59 28.69 23.92 27.09 22.08 27.09"/><polygon class="cls-2" points="26.94 30.83 28.62 30.83 28.81 29.69 27.15 29.69 26.94 30.83"/><polygon class="cls-2" points="25.38 24.95 25.14 26.09 26.81 26.09 27.03 24.94 25.38 24.95"/><polygon class="cls-2" points="24.17 30.83 25.92 30.83 26.14 29.69 24.4 29.69 24.17 30.83"/><polygon class="cls-2" points="23.62 33.5 25.42 33.5 25.73 31.83 23.96 31.83 23.62 33.5"/><polygon class="cls-2" points="21.18 30.83 23.15 30.83 23.38 29.69 21.45 29.69 21.18 30.83"/><polygon class="cls-2" points="27.87 7.85 28.05 7 26.92 7 26.71 7.85 27.87 7.85"/><polygon class="cls-2" points="30.24 7.85 30.4 7 29.07 7 28.89 7.85 30.24 7.85"/><polygon class="cls-2" points="25.68 7.85 25.89 7 24.98 7 24.77 7.85 25.68 7.85"/><polygon class="cls-2" points="32.48 7.85 32.62 7 31.42 7 31.26 7.85 32.48 7.85"/><polygon class="cls-2" points="36.7 21.55 37.99 21.56 38.05 20.47 36.74 20.47 36.7 21.55"/><polygon class="cls-2" points="23.74 7.85 23.95 7 22.55 7 22.31 7.85 23.74 7.85"/><polygon class="cls-2" points="21 8.85 19.48 8.85 19.25 9.54 20.8 9.56 21 8.85"/><polygon class="cls-2" points="21.27 7.85 21.51 7 20.11 7 19.82 7.85 21.27 7.85"/><polygon class="cls-2" points="18.59 17.5 18.8 16.76 16.81 16.77 16.56 17.49 18.59 17.5"/><polygon class="cls-2" points="17.77 20.47 15.55 20.47 15.22 21.46 17.49 21.47 17.77 20.47"/><polygon class="cls-2" points="16.51 24.98 14.03 24.99 13.65 26.09 16.2 26.09 16.51 24.98"/><polygon class="cls-2" points="19.98 12.49 18.25 12.49 17.91 13.49 19.71 13.49 19.98 12.49"/><polygon class="cls-2" points="36.62 23.9 37.85 23.89 37.93 22.56 36.66 22.55 36.62 23.9"/><polygon class="cls-2" points="34.74 13.49 35.99 13.49 36.03 12.49 34.81 12.49 34.74 13.49"/><polygon class="cls-2" points="34.58 15.7 35.91 15.69 35.96 14.49 34.67 14.49 34.58 15.7"/><polygon class="cls-2" points="34.88 11.49 36.06 11.49 36.09 10.69 34.94 10.68 34.88 11.49"/><polygon class="cls-2" points="29.18 33.5 32.28 33.5 32.4 31.83 29.46 31.83 29.18 33.5"/><polygon class="cls-2" points="34.3 19.47 35.77 19.47 35.81 18.58 34.37 18.57 34.3 19.47"/><polygon class="cls-2" points="34.44 17.57 35.84 17.58 35.88 16.69 34.51 16.7 34.44 17.57"/><polygon class="cls-2" points="36.44 28.69 37.56 28.69 37.66 27.09 36.5 27.09 36.44 28.69"/><polygon class="cls-2" points="34.15 21.54 35.7 21.55 35.74 20.47 34.23 20.47 34.15 21.54"/><polygon class="cls-2" points="36.53 26.09 37.72 26.09 37.79 24.89 36.58 24.9 36.53 26.09"/><polygon class="cls-2" points="36.36 30.83 37.44 30.83 37.5 29.69 36.4 29.69 36.36 30.83"/><polygon class="cls-2" points="36.27 33.5 37.28 33.5 37.38 31.83 36.33 31.83 36.27 33.5"/><polygon class="cls-2" points="35.15 7.85 36.2 7.85 36.23 7 35.21 7 35.15 7.85"/><polygon class="cls-2" points="35.02 9.68 36.13 9.69 36.16 8.85 35.08 8.85 35.02 9.68"/><polygon class="cls-2" points="30.43 26.09 32.82 26.09 32.91 24.91 30.62 24.92 30.43 26.09"/><polygon class="cls-2" points="30.79 23.92 32.98 23.91 33.08 22.54 31.03 22.53 30.79 23.92"/><polygon class="cls-2" points="29.99 28.69 32.63 28.69 32.75 27.09 30.26 27.09 29.99 28.69"/><polygon class="cls-2" points="33.98 23.91 35.61 23.9 35.66 22.55 34.08 22.54 33.98 23.91"/><polygon class="cls-2" points="29.63 30.83 32.48 30.83 32.56 29.69 29.82 29.69 29.63 30.83"/><polygon class="cls-2" points="31.19 21.53 33.15 21.54 33.23 20.47 31.37 20.47 31.19 21.53"/><polygon class="cls-2" points="33.48 30.83 35.36 30.83 35.4 29.69 33.56 29.69 33.48 30.83"/><polygon class="cls-2" points="33.82 26.09 35.53 26.09 35.58 24.9 33.91 24.91 33.82 26.09"/><polygon class="cls-2" points="33.63 28.69 35.44 28.69 35.5 27.09 33.75 27.09 33.63 28.69"/><polygon class="cls-2" points="32.01 16.7 31.86 17.56 33.44 17.57 33.5 16.7 32.01 16.7"/><polygon class="cls-2" points="31.54 19.47 33.3 19.47 33.37 18.57 31.69 18.56 31.54 19.47"/><path d="M69.6,28.69l1.3,3.14H68l.81,2-.93.38-1-2.36H63.54l.91,2.67h-7.1l-.59-2.67H53l.29,2.67H47.25l0-2.67h-2V34.5h-5l.1-2.67H38.38l-.16,2.67h-3l.1-2.67H33.41l-.2,2.67H28l.45-2.67h-1.7l-.5,2.67H22.4l.54-2.67h-2L20.3,34.5H17.05l.67-2.67H15.65L15,34.13l-1-.26.57-2H11.72l-.79,2.33L10,33.84l1.42-4.19,1.2-3.56L13,25l1.2-3.54,1.58-4.69,1.11-3.28.4-1.17.94-2.78L19.39,6H59.9V7h-2l.35.85H61l1.27,3.07-2.79,0,.25.59H62.5l1.24,3H61l.45,1.1h2.79l1.3,3.14H62.68l.31.76H65.8l1.32,3.21H64.3l.45,1.11,2.82,0,1.37,3.33H66.1l.66,1.6Zm-.2,2.14-.47-1.14H67.17l.46,1.14Zm-2-4.74-.55-1.32H65.16l.54,1.32Zm-.9,4.74-.46-1.14H62.8l.39,1.14Zm-.87-2.14L65,27.09H61.91l.55,1.6Zm-.06-7-.49-1.21H63.4l.49,1.2Zm-1,4.41-.54-1.31h-3l.45,1.3ZM64,17.71l-.47-1.13H61.81l.46,1.12Zm-.32,6.07-.46-1.11-2.82,0,.39,1.14Zm-.62,9.72-.57-1.67h-4.7l.37,1.67ZM62.8,21.66l-.48-1.19H59.64l.4,1.18Zm-.55-8.17-.42-1H60.14l.4,1Zm-.11,17.34-.4-1.14H57.3l.26,1.14Zm-.23-11.36-.32-.77H59l.27.78Zm-.51,9.22-.55-1.6H56.72l.36,1.6Zm-.22-11-.45-1.11H58.31l.37,1.09Zm-.41-7.79-.44-1.06H58.65l.42,1Zm-.26,16.18-.45-1.29H56.22l.28,1.28Zm-.19-10.5-.45-1.1H57.59L58,15.6Zm-.6,8.21-.39-1.15-3.6,0L56,23.81Zm-.26-10.31-.4-1H56.9l.35,1ZM59,21.65l-.41-1.18H55.25l.26,1.16Zm-.34-10.16-.25-.6-2,0,.21.62Zm-.41,8L58,18.69l-3.12,0,.18.8ZM58,9.88l-.42-1H55.65l.35,1Zm-.36,7.8-.37-1.08-2.87,0,.24,1.05Zm-.47-9.83L56.81,7H55l.29.85Zm-.25,7.76-.38-1.12H53.92l.25,1.13Zm-.38,15.22-.25-1.14h-3.5l.13,1.14Zm-.34-17.34-.35-1H53.47l.23,1Zm-.13,15.2-.36-1.6H52.5l.17,1.6Zm-.56-17.2-.22-.63-2.17,0,.14.65Zm0,14.6-.29-1.27H52.25l.14,1.26ZM55,23.82l-.26-1.19H52l.13,1.21Zm0-14-.34-1H52.66l.22,1Zm-.46,11.77-.25-1.16H51.78l.12,1.15ZM54.25,7.85,54,7H52.25l.19.85ZM54,19.47l-.17-.8H51.58l.09.81Zm-.4-1.8-.23-1.05h-2l.11,1Zm-.45-2.05-.25-1.13H51.12l.13,1.14Zm-.48-2.13-.22-1H50.91l.11,1Zm-.44-2-.15-.66H50.72l.08.67Zm0,22L52,31.83H48.23l0,1.67Zm-.29-2.67-.12-1.14H48.21v1.14Zm0-21-.22-1H50.51l.11,1Zm-.19,18.86-.18-1.6H48.18l0,1.6ZM51.42,7.85,51.23,7h-.92l.09.85Zm0,18.24-.13-1.26-3.09,0,0,1.24Zm-.24-2.26L51,22.61H48.14v1.25Zm-.24-2.22-.13-1.14H48.12V21.6Zm-.24-2.14-.09-.82H48.11v.83Zm-.2-1.82-.11-1H48.09v1Zm-.22-2-.12-1.14h-2v1.15ZM50,13.49l-.11-1H48.05v1Zm-.22-2-.07-.68H48v.69Zm-.18-1.68-.11-1H48v1Zm-.22-2L49.3,7H48v.85Zm-2.17,23V29.69h-2v1.14Zm0-2.14v-1.6H45.25v1.6Zm0-2.6,0-1.24H45.25v1.23Zm0-2.24V22.6H45.25v1.27Zm0-2.25V20.47H45.25v1.12Zm0-2.13v-.84H45.25v.84Zm0-1.84v-1H45.25v1Zm0-2V14.49H45.25v1.16Zm0-2.15v-1h-1.8v1Zm0-2v-.7l-1.78,0v.72Zm0-1.7V8.85H45.25v.92Zm0-1.94V7H45.25v.85ZM44.25,33.5V31.83H41.33l-.06,1.67Zm0-2.67V29.69H41.4l0,1.14Zm0-2.14v-1.6H41.5l-.06,1.6Zm0-2.6V24.86l-2.67,0,0,1.21Zm0-2.23V22.59l-2.59,0,0,1.31Zm0-2.27V20.47H41.73l0,1.1Zm0-2.12v-.85H41.8l0,.86Zm0-1.85v-1H41.87l0,.94Zm0-2V14.49H42l0,1.18Zm0-2.17v-1H42l0,1Zm0-2v-.73l-2.17,0,0,.75Zm0-1.73V8.85h-2.1l0,.89Zm0-1.91V7h-2l0,.85Zm-3.07,0,0-.85H39.86l0,.85Zm-.06,1.89,0-.89h-1.4l0,.87Zm-.07,1.75,0-.76H39.64l0,.77Zm-.07,2,0-1H39.53l-.06,1Zm-.08,2.18L41,14.49H39.41l-.07,1.19Zm-.06,1.94,0-.94H39.28l-.05.92Zm-.07,1.86,0-.87H39.17l-.05.87Zm-.08,2.1,0-1.1H39.06L39,21.56Zm-.08,2.31,0-1.31H38.93l-.08,1.33Zm-.08,2.21,0-1.21H38.79l-.07,1.2Zm-.09,2.6.06-1.6H38.66l-.09,1.6Zm-.08,2.14,0-1.14H38.51l-.07,1.14Zm-1.55-23,0-.85H37.23l0,.85ZM38.7,9.71l0-.86H37.16l0,.85Zm-.11,1.78,0-.78H37.1l0,.79Zm-.12,2,.06-1H37l0,1Zm-.13,2.19.07-1.19H37l0,1.2Zm-.11,1.91.05-.91h-1.4l0,.9Zm-.12,1.88.06-.88H36.81l0,.88ZM38,21.56l.06-1.09H36.74l0,1.08Zm-.14,2.33.08-1.33H36.67l-.05,1.35Zm-.13,2.2.07-1.2H36.58l0,1.19Zm-.15,2.6.09-1.6H36.5l-.06,1.6Zm-.13,2.14.07-1.14h-1.1l0,1.14Zm-.16,2.67.1-1.67H36.33l-.06,1.67ZM36.2,7.85l0-.85h-1l-.06.85Zm-.07,1.84,0-.84H35.08L35,9.68Zm-.06,1.8,0-.8H35l-.06.81Zm-.07,2,0-1H34.82l-.08,1Zm-.08,2.2,0-1.2H34.67l-.09,1.2Zm-.07,1.89,0-.89H34.51l-.06.88Zm-.07,1.89,0-.89H34.37l-.06.9Zm-.08,2.08,0-1.08h-1.5l-.08,1.07Zm-.08,2.35.05-1.35H34.08L34,23.91Zm-.08,2.19,0-1.19H33.91l-.08,1.18Zm-.1,2.6.06-1.6H33.75l-.11,1.6Zm-.08,2.14,0-1.14H33.56l-.08,1.14Zm-1.21-23L34.21,7h-.57l-.14.85ZM34,9.67l.06-.82h-.75l-.14.82Zm-.13,1.82.06-.82H33l-.14.83Zm-.15,2,.07-1H32.72l-.17,1Zm-.16,2.21.09-1.21H32.38l-.2,1.21Zm-.14,1.87.07-.87H32l-.15.85Zm-.13,1.9.06-.9H31.7l-.16.91Zm-.15,2.07.07-1.07H31.37l-.17,1.06ZM33,23.91l.1-1.37H31l-.24,1.39Zm-.16,2.18.09-1.18H30.63l-.2,1.17Zm-.19,2.6.12-1.6H30.26L30,28.69ZM32.48,7.85,32.62,7h-1.2l-.16.85Zm0,23,.08-1.14H29.83l-.2,1.14Zm-.19,2.67.12-1.67H29.47l-.28,1.67ZM32.18,9.66l.13-.81H31.08l-.15.8Zm-.31,1.83.14-.83-1.27,0-.16.85Zm-.34,2,.17-1H30.39l-.19,1Zm-.37,2.22.21-1.22H30l-.23,1.22Zm-.31,1.85.14-.85H29.6l-.16.83Zm-.32,1.91.15-.91H29.25l-.17.92ZM30.25,7.85,30.41,7H29.07l-.17.85Zm-.07,13.68.18-1.06H28.89l-.2,1.05ZM29.91,9.64l.15-.79H28.69l-.16.78Zm-.13,14.29L30,22.52H28.5l-.26,1.41Zm-.22-12.44.16-.85-1.39,0-.18.87Zm-.14,14.6.19-1.16H28.05l-.22,1.16Zm-.23-12.6.18-1H27.94l-.2,1ZM29,28.69l.27-1.6H27.64l-.3,1.6Zm-.21-13L29,14.49H27.53l-.25,1.23Zm-.15,15.11.19-1.14H27.16l-.22,1.14Zm-.2-13.28.16-.83H27.07l-.17.81Zm-.36,1.92.17-.92H26.7l-.19.93ZM27.88,7.85,28.05,7H26.92l-.2.85Zm-.2,13.66.19-1H26.3l-.21,1ZM27.51,9.62l.16-.77h-1.2l-.18.76Zm-.29,14.32.27-1.43H25.88l-.29,1.43Zm-.09-12.45.18-.88H26.05l-.21.89Zm-.31,14.6L27,24.94H25.38l-.23,1.14Zm-.1-12.6.2-1H25.6l-.24,1Zm-.39,15.2.3-1.6H24.94l-.33,1.6Zm-.07-13,.25-1.24H25.12l-.3,1.24Zm-.34,15.1.22-1.14H24.41l-.24,1.14Zm0-13.29.17-.81H24.58l-.19.79Zm-.19-9.69.2-.85H25l-.21.85ZM25.42,33.5l.32-1.67H24l-.34,1.67Zm.07-14,.19-.94H24.14l-.22.94ZM25.27,9.6l.18-.75h-.93l-.18.74Zm-.2,11.9.21-1h-1.6l-.25,1Zm-.26-10,.22-.9h-1l-.22.9ZM24.57,24l.29-1.45H23.19L22.84,24Zm-.24-10.46.24-1h-1l-.25,1Zm-.21,12.6L24.36,25H22.6l-.28,1.13Zm-.33-10.35.3-1.25h-1l-.31,1.25Zm-.05-7.89L24,7h-1.4l-.23.85Zm-.15,20.84.33-1.6H22.08l-.38,1.6Zm-.23-11.17.19-.78h-1l-.19.78Zm-.05-7.94.18-.73H22l-.2.72Zm-.16,21.25.23-1.14H21.46l-.28,1.14Zm-.26-11.36.23-.95h-1l-.23.95Zm-.06-8,.23-.91-1.5,0-.26.93Zm-.43,10,.25-1h-1l-.25,1Zm-.08-8,.26-1H21l-.27,1ZM21.81,24l.35-1.47H21.1L20.73,24Zm0-8.21.31-1.26h-1.6l-.35,1.26Zm-.47,10.34L21.57,25H20.48l-.29,1.12Zm0-18.24L21.51,7h-1.4l-.29.85Zm0,9.66.19-.76H19.84l-.21.76Zm-.5,2,.24-1H19.35l-.27,1Zm-.15,9.22.38-1.6H19.94l-.4,1.6ZM20.8,9.56l.2-.71H19.48l-.23.69Zm-.48,11.92.25-1H18.81l-.28,1Zm-.06-10,.26-.93-1.61,0,0,.06-.3.89Zm-.11,19.34.28-1.14H19.29L19,30.83ZM19.7,24l.37-1.49H18.25L17.83,24Zm0-10.48.28-1H18.25l-.33,1Zm-.2,20,.4-1.67H18.75l-.42,1.67Zm-.35-7.41L19.44,25H17.55l-.31,1.11Zm-.08-10.33.35-1.27H17.58l-.43,1.27Zm-.57,12.93.4-1.6H17l-.45,1.6Zm.08-11.19.21-.74h-2l-.25.72Zm-.54,2,.27-1H16.23l-.34,1ZM18,30.83l.29-1.14h-2l-.31,1.14Zm-.48-9.36.28-1H15.56l-.34,1ZM16.79,24l.42-1.51H14.88L14.37,24Zm-.58,2.11.3-1.11H14l-.37,1.1Zm-.73,2.6.45-1.6H13.32l-.4,1.18-.14.42Zm-.59,2.14.31-1.14H12.44l-.39,1.14Z"/><polygon class="cls-3" points="58.58 20.47 58.99 21.65 55.51 21.63 55.25 20.47 58.58 20.47"/><polygon class="cls-3" points="57.97 18.69 58.24 19.47 55.03 19.47 54.85 18.67 57.97 18.69"/><polygon class="cls-3" points="57.26 16.6 57.63 17.68 54.63 17.67 54.39 16.62 57.26 16.6"/><polygon class="cls-3" points="56.53 14.49 56.91 15.61 54.17 15.62 53.92 14.49 56.53 14.49"/><polygon class="cls-3" points="54.23 20.47 54.48 21.63 51.9 21.62 51.78 20.47 54.23 20.47"/><polygon class="cls-3" points="52.9 14.49 53.15 15.62 51.25 15.63 51.12 14.49 52.9 14.49"/><polygon class="cls-3" points="50.77 20.47 50.9 21.61 48.13 21.6 48.12 20.47 50.77 20.47"/><polygon class="cls-3" points="50.12 14.49 50.24 15.63 48.08 15.64 48.07 14.49 50.12 14.49"/><polygon class="cls-3" points="47.12 20.47 47.13 21.6 45.25 21.59 45.25 20.47 47.12 20.47"/><rect class="cls-3" x="45.25" y="18.63" width="1.86" height="0.84"/><polygon class="cls-3" points="47.09 16.64 47.1 17.63 45.25 17.63 45.25 16.65 47.09 16.64"/><polygon class="cls-3" points="47.07 14.49 47.08 15.64 45.25 15.65 45.25 14.49 47.07 14.49"/><polygon class="cls-3" points="40.95 14.49 40.9 15.67 39.34 15.68 39.41 14.49 40.95 14.49"/><polygon class="cls-3" points="38.28 16.68 38.23 17.59 36.85 17.59 36.88 16.69 38.28 16.68"/><polygon class="cls-3" points="37.51 29.69 37.44 30.83 36.37 30.83 36.41 29.69 37.51 29.69"/><polygon class="cls-3" points="37.38 31.83 37.28 33.5 36.27 33.5 36.33 31.83 37.38 31.83"/><polygon class="cls-3" points="36.1 10.69 36.07 11.49 34.89 11.49 34.95 10.68 36.1 10.69"/><polygon class="cls-3" points="36.03 12.49 36 13.49 34.74 13.49 34.82 12.49 36.03 12.49"/><polygon class="cls-3" points="35.81 18.58 35.78 19.47 34.31 19.47 34.37 18.57 35.81 18.58"/><polygon class="cls-3" points="35.5 27.09 35.44 28.69 33.64 28.69 33.75 27.09 35.5 27.09"/><polygon class="cls-3" points="34.08 8.85 34.02 9.67 33.19 9.67 33.33 8.85 34.08 8.85"/><polygon class="cls-3" points="33.67 14.49 33.58 15.7 32.18 15.7 32.38 14.49 33.67 14.49"/><polygon class="cls-3" points="33.51 16.7 33.44 17.57 31.86 17.56 32.01 16.71 33.51 16.7"/><polygon class="cls-3" points="33.37 18.57 33.31 19.47 31.54 19.47 31.7 18.56 33.37 18.57"/><polygon class="cls-3" points="33.23 20.47 33.16 21.54 31.2 21.53 31.37 20.47 33.23 20.47"/><polygon class="cls-3" points="33.08 22.54 32.98 23.91 30.79 23.92 31.03 22.53 33.08 22.54"/><polygon class="cls-3" points="32.91 24.91 32.82 26.09 30.43 26.09 30.63 24.92 32.91 24.91"/><polygon class="cls-3" points="32.31 8.85 32.18 9.66 30.93 9.65 31.08 8.85 32.31 8.85"/><polygon class="cls-3" points="31.37 14.49 31.16 15.71 29.78 15.71 30.01 14.49 31.37 14.49"/><polygon class="cls-3" points="30.68 18.56 30.53 19.47 29.08 19.47 29.25 18.55 30.68 18.56"/><polygon class="cls-3" points="29.72 10.64 29.56 11.49 28.15 11.49 28.33 10.62 29.72 10.64"/><polygon class="cls-3" points="29.37 12.49 29.19 13.49 27.74 13.49 27.94 12.49 29.37 12.49"/><polygon class="cls-3" points="29.25 27.09 28.98 28.69 27.34 28.69 27.64 27.09 29.25 27.09"/><polygon class="cls-3" points="28.81 29.69 28.62 30.83 26.94 30.83 27.16 29.69 28.81 29.69"/><polygon class="cls-3" points="28.23 18.55 28.06 19.47 26.51 19.47 26.7 18.54 28.23 18.55"/><polygon class="cls-3" points="26.05 16.73 25.88 17.54 24.39 17.53 24.58 16.74 26.05 16.73"/><polygon class="cls-3" points="25.74 31.83 25.42 33.5 23.62 33.5 23.96 31.83 25.74 31.83"/><polygon class="cls-3" points="25.45 8.85 25.27 9.6 24.34 9.59 24.52 8.85 25.45 8.85"/><polygon class="cls-3" points="24.57 12.49 24.33 13.49 23.36 13.49 23.61 12.49 24.57 12.49"/><polygon class="cls-3" points="23.49 8.85 23.31 9.58 21.84 9.57 22.04 8.85 23.49 8.85"/><polygon class="cls-3" points="22.58 12.49 22.32 13.49 20.75 13.49 21.02 12.49 22.58 12.49"/><polygon class="cls-3" points="21.51 16.75 21.32 17.51 19.63 17.51 19.84 16.75 21.51 16.75"/><polygon class="cls-3" points="18.32 18.5 18.05 19.47 15.89 19.47 16.23 18.49 18.32 18.5"/><polyline class="cls-4" points="21.56 0.5 19.75 6.5 12.05 6.5"/></g></g></svg>