<svg xmlns="http://www.w3.org/2000/svg" viewBox="0 0 72.37 41"><defs><style>.cls-1{fill:#fff;stroke:#000;stroke-miterlimit:10;}</style></defs><g id="Layer_2" data-name="Layer 2"><g id="Sudoku"><polygon class="cls-1" points="71.58 40.5 0.58 40.5 6.58 0.5 52.58 0.5 71.58 40.5"/><line class="cls-1" x1="6.07" y1="3.9" x2="54.19" y2="3.9"/><line class="cls-1" x1="55.91" y1="7.5" x2="5.53" y2="7.5"/><line class="cls-1" x1="4.93" y1="11.48" x2="57.79" y2="11.48"/><line class="cls-1" x1="4.25" y1="16.03" x2="59.96" y2="16.03"/><line class="cls-1" x1="61.96" y1="20.25" x2="3.58" y2="20.5"/><line class="cls-1" x1="3.03" y1="24.18" x2="63.83" y2="24.18"/><line class="cls-1" x1="65.89" y1="28.51" x2="2.38" y2="28.51"/><line class="cls-1" x1="1.61" y1="33.66" x2="68.33" y2="33.66"/><line class="cls-1" x1="47.58" y1="0.5" x2="65.58" y2="40.5"/><line class="cls-1" x1="42.43" y1="0.5" x2="59.25" y2="40.5"/><line class="cls-1" x1="51.58" y1="40.5" x2="38.58" y2="0.5"/><line class="cls-1" x1="34.58" y1="0.5" x2="44.58" y2="40.5"/><line class="cls-1" x1="36.58" y1="40.5" x2="31.58" y2="0.5"/><line class="cls-1" x1="27.58" y1="0.5" x2="28.58" y2="40.5"/><line class="cls-1" x1="11.46" y1="0.5" x2="7.18" y2="40.5"/><line class="cls-1" x1="13.94" y1="40.5" x2="16.91" y2="0.5"/><line class="cls-1" x1="22.58" y1="0.5" x2="20.58" y2="40.5"/><path d="M42.42,5.22h0l-.61.37-.15-.14L42.41,5l.44-.15.56,1.73-.5.16Z"/><path d="M17,27a.85.85,0,0,1,.72-.71h0a.73.73,0,0,1-.43-.71c.05-.46.51-.72,1.07-.66s.89.46.85.82a.76.76,0,0,1-.6.62h0a.82.82,0,0,1,.55.82c-.05.5-.56.79-1.17.72S17,27.4,17,27Zm1.71.17c0-.35-.21-.55-.63-.71a.67.67,0,0,0-.64.53.58.58,0,0,0,.58.63C18.43,27.64,18.7,27.45,18.73,27.15Zm-1-1.58c0,.29.19.47.55.6a.58.58,0,0,0,.54-.47.47.47,0,0,0-.48-.53A.49.49,0,0,0,17.71,25.57Z"/><path d="M37.59,6.76l0-.17.2-.23c.46-.54.67-.82.64-1.13A.36.36,0,0,0,38,4.88a.62.62,0,0,0-.41.21l-.11-.18A.9.9,0,0,1,38,4.64a.58.58,0,0,1,.68.53c0,.37-.2.7-.59,1.15L38,6.49h0l.91-.1,0,.23Z"/><path d="M24.75,32.67l.07-.94L23,31.6l0-.3,1.88-2.08.56,0-.15,2.14.54,0,0,.36-.54,0-.06.93Zm.1-1.3.08-1.15c0-.18,0-.36.05-.54h0c-.13.19-.23.33-.35.48l-1,1.11h0Z"/><path d="M37.11,16.83l0,.24-1,2.53-.37,0,1-2.46h0l-1.28.1,0-.31Z"/><path d="M29.69,10.62a1.82,1.82,0,0,0,.35,0,1.36,1.36,0,0,0,.63-.33A1,1,0,0,0,31,9.52h0a1,1,0,0,1-.71.36.84.84,0,0,1-1-.67,1.08,1.08,0,0,1,2.15-.08,1.46,1.46,0,0,1-.4,1.26,1.76,1.76,0,0,1-.88.45,1.61,1.61,0,0,1-.39.06Zm0-1.48a.56.56,0,0,0,.68.47.83.83,0,0,0,.59-.34.19.19,0,0,0,0-.13c-.05-.44-.29-.75-.74-.69A.6.6,0,0,0,29.67,9.14Z"/><path d="M11.29,29.77h0l-.83.28-.11-.36,1.05-.34.55,0-.17,3.36-.62,0Z"/><path d="M25.47,17a2.18,2.18,0,0,0-.34,0A1.3,1.3,0,0,0,24,18.08h0a1,1,0,0,1,.81-.35.93.93,0,0,1,1,1,1.05,1.05,0,0,1-1.11,1.06,1.16,1.16,0,0,1-1.19-1.28,1.77,1.77,0,0,1,.57-1.35,1.92,1.92,0,0,1,1.07-.45,2.19,2.19,0,0,1,.33,0Zm-.13,1.73a.64.64,0,0,0-.69-.69.77.77,0,0,0-.65.37.35.35,0,0,0-.05.18c0,.5.26.86.74.86A.65.65,0,0,0,25.34,18.72Z"/><path d="M19.1,21.48,18,21.43,17.9,22h.23a1.47,1.47,0,0,1,.6.14.62.62,0,0,1,.37.57c0,.41-.47.7-1.08.67a1.8,1.8,0,0,1-.69-.17l.11-.21a1.63,1.63,0,0,0,.59.14c.35,0,.67-.14.68-.42s-.22-.48-.78-.51h-.39l.24-1,1.34.07Z"/><path d="M52.73,29.63l-1.43.24v.84a1.33,1.33,0,0,1,.3-.07,1.82,1.82,0,0,1,.84,0,.88.88,0,0,1,.67.72c.11.61-.4,1.17-1.21,1.31a2.09,2.09,0,0,1-1,0l.07-.34a2.1,2.1,0,0,0,.83,0c.48-.09.85-.42.78-.84s-.45-.64-1.2-.51a3.23,3.23,0,0,0-.51.12l0-1.55,1.8-.31Z"/><path d="M7.38,12.78h0l-.56.17,0-.29.7-.2.34.05-.43,2.67L7,15.11Z"/><path d="M59.78,38.85l-.06-.32.38-.48c.92-1.14,1.32-1.73,1.21-2.3-.07-.38-.36-.69-1-.57a1.6,1.6,0,0,0-.85.51l-.26-.33a2.11,2.11,0,0,1,1.14-.63c.93-.18,1.44.3,1.54.84.14.7-.32,1.38-1.08,2.33l-.29.35h0l1.93-.38.09.42Z"/><path d="M52.39,19.13a1.28,1.28,0,0,0,.59,0,.51.51,0,0,0,.4-.66.58.58,0,0,0-.78-.32l-.18.06L52.34,18l.18-.05a.5.5,0,0,0,.41-.59.38.38,0,0,0-.53-.26.9.9,0,0,0-.44.32l-.16-.23a1.25,1.25,0,0,1,.58-.38.64.64,0,0,1,.6,1.12h0a.68.68,0,0,1,.74.49.82.82,0,0,1-.66,1,1.32,1.32,0,0,1-.68,0Z"/><path d="M45.64,38.12a1.19,1.19,0,0,1,.81-1.19v0a1,1,0,0,1-.86-.82c-.07-.64.51-1.15,1.33-1.24s1.42.32,1.48.83a1,1,0,0,1-.66,1v0c.61.13,1,.44,1.08.93.08.7-.56,1.25-1.46,1.36S45.71,38.71,45.64,38.12Zm2.53-.33c-.06-.49-.48-.68-1.14-.76-.53.21-.79.55-.75.93s.44.73,1,.66S48.22,38.21,48.17,37.79Zm-2-1.81c0,.41.43.58,1,.64.4-.16.68-.45.63-.82s-.3-.63-.87-.56S46.14,35.64,46.18,36Z"/></g></g></svg>